<mxfile host="65bd71144e">
    <diagram id="ekzfMq8FDdJsoh0hXVtB" name="アーキテクチャ全体図">
        <mxGraphModel dx="1432" dy="827" grid="1" gridSize="10" guides="1" tooltips="1" connect="1" arrows="1" fold="1" page="1" pageScale="1" pageWidth="1169" pageHeight="827" math="0" shadow="0">
            <root>
                <mxCell id="0"/>
                <mxCell id="1" parent="0"/>
                <mxCell id="10" value="" style="rounded=0;whiteSpace=wrap;html=1;fontSize=14;" vertex="1" parent="1">
                    <mxGeometry x="480" y="90" width="600" height="440" as="geometry"/>
                </mxCell>
                <mxCell id="2" value="C#" style="rounded=0;whiteSpace=wrap;html=1;fillColor=#D1D1D1;fontSize=14;" vertex="1" parent="1">
                    <mxGeometry x="660" y="384" width="350" height="60" as="geometry"/>
                </mxCell>
                <mxCell id="3" value="WPF" style="rounded=0;whiteSpace=wrap;html=1;fillColor=#D1D1D1;fontSize=14;" vertex="1" parent="1">
                    <mxGeometry x="530" y="240" width="120" height="204" as="geometry"/>
                </mxCell>
                <mxCell id="4" value="データ永続化" style="rounded=0;whiteSpace=wrap;html=1;fontSize=14;" vertex="1" parent="1">
                    <mxGeometry x="660" y="310" width="110" height="60" as="geometry"/>
                </mxCell>
                <mxCell id="5" value="通信" style="rounded=0;whiteSpace=wrap;html=1;fontSize=14;" vertex="1" parent="1">
                    <mxGeometry x="780" y="310" width="110" height="60" as="geometry"/>
                </mxCell>
                <mxCell id="6" value="etc." style="rounded=0;whiteSpace=wrap;html=1;fontSize=14;" vertex="1" parent="1">
                    <mxGeometry x="900" y="310" width="110" height="60" as="geometry"/>
                </mxCell>
                <mxCell id="7" value="コントローラ" style="rounded=0;whiteSpace=wrap;html=1;fontSize=14;" vertex="1" parent="1">
                    <mxGeometry x="660" y="240" width="350" height="60" as="geometry"/>
                </mxCell>
                <mxCell id="8" value="GUI" style="rounded=0;whiteSpace=wrap;html=1;fontSize=14;" vertex="1" parent="1">
                    <mxGeometry x="530" y="170" width="480" height="60" as="geometry"/>
                </mxCell>
                <mxCell id="9" value="GUIアーキテクチャ：MVVM" style="rounded=0;whiteSpace=wrap;html=1;dashed=1;fillColor=none;strokeWidth=3;strokeColor=#007FFF;verticalAlign=top;align=left;fontColor=#3333FF;fontSize=14;" vertex="1" parent="1">
                    <mxGeometry x="490" y="140" width="530" height="94" as="geometry"/>
                </mxCell>
                <mxCell id="11" value="システムアーキテクチャ：オニオンアーキテクチャ" style="rounded=0;whiteSpace=wrap;html=1;dashed=1;fillColor=none;strokeWidth=3;strokeColor=#33FF33;verticalAlign=top;align=right;fontColor=#009900;fontSize=14;" vertex="1" parent="1">
                    <mxGeometry x="657" y="110" width="403" height="265" as="geometry"/>
                </mxCell>
                <mxCell id="12" value=".NET" style="rounded=0;whiteSpace=wrap;html=1;fillColor=#D1D1D1;fontSize=14;" vertex="1" parent="1">
                    <mxGeometry x="530" y="450" width="480" height="60" as="geometry"/>
                </mxCell>
            </root>
        </mxGraphModel>
    </diagram>
    <diagram id="R86Gn5Yo9cQoMH25trvK" name="オニオンアーキテクチャ">
        <mxGraphModel dx="1432" dy="827" grid="1" gridSize="10" guides="1" tooltips="1" connect="1" arrows="1" fold="1" page="1" pageScale="1" pageWidth="1169" pageHeight="827" math="0" shadow="0">
            <root>
                <mxCell id="0"/>
                <mxCell id="1" parent="0"/>
                <mxCell id="N-UqKcId2rnhtK5vGyZU-1" value="" style="rounded=0;whiteSpace=wrap;html=1;fontSize=14;" vertex="1" parent="1">
                    <mxGeometry x="390" y="278" width="450" height="300" as="geometry"/>
                </mxCell>
                <mxCell id="sSKXt0Mp8WAD8Ce5-9CS-4" value="&lt;font color=&quot;#000000&quot; style=&quot;font-size: 14px;&quot;&gt;&lt;br style=&quot;font-size: 14px;&quot;&gt;&lt;/font&gt;" style="ellipse;whiteSpace=wrap;html=1;strokeColor=#000000;strokeWidth=1;fontColor=#009900;fillColor=#FFFFFF;verticalAlign=top;fontSize=14;" vertex="1" parent="1">
                    <mxGeometry x="420" y="300" width="390" height="260" as="geometry"/>
                </mxCell>
                <mxCell id="sSKXt0Mp8WAD8Ce5-9CS-3" value="&lt;font color=&quot;#000000&quot; style=&quot;font-size: 14px;&quot;&gt;Application Service&lt;br style=&quot;font-size: 14px;&quot;&gt;&lt;br style=&quot;font-size: 14px;&quot;&gt;&lt;/font&gt;" style="ellipse;whiteSpace=wrap;html=1;strokeColor=#000000;strokeWidth=1;fontColor=#009900;fillColor=#FFFFFF;verticalAlign=top;fontSize=14;" vertex="1" parent="1">
                    <mxGeometry x="450" y="340" width="330" height="200" as="geometry"/>
                </mxCell>
                <mxCell id="sSKXt0Mp8WAD8Ce5-9CS-2" value="&lt;font color=&quot;#000000&quot; style=&quot;font-size: 14px;&quot;&gt;Domain Service&lt;br style=&quot;font-size: 14px;&quot;&gt;&lt;br style=&quot;font-size: 14px;&quot;&gt;&lt;/font&gt;" style="ellipse;whiteSpace=wrap;html=1;strokeColor=#000000;strokeWidth=1;fontColor=#009900;fillColor=#FFFFFF;verticalAlign=top;fontSize=14;" vertex="1" parent="1">
                    <mxGeometry x="480" y="370" width="270" height="150" as="geometry"/>
                </mxCell>
                <mxCell id="sSKXt0Mp8WAD8Ce5-9CS-1" value="&lt;font color=&quot;#000000&quot; style=&quot;font-size: 14px;&quot;&gt;Domain Model&lt;/font&gt;" style="ellipse;whiteSpace=wrap;html=1;strokeColor=#000000;strokeWidth=1;fontColor=#009900;fillColor=#FFFFFF;fontSize=14;" vertex="1" parent="1">
                    <mxGeometry x="520" y="400" width="190" height="100" as="geometry"/>
                </mxCell>
                <mxCell id="sSKXt0Mp8WAD8Ce5-9CS-5" value="User Interface" style="text;html=1;strokeColor=none;fillColor=none;align=center;verticalAlign=middle;whiteSpace=wrap;rounded=0;strokeWidth=1;fontColor=#000000;fontSize=14;rotation=-30;" vertex="1" parent="1">
                    <mxGeometry x="450" y="330" width="110" height="30" as="geometry"/>
                </mxCell>
                <mxCell id="sSKXt0Mp8WAD8Ce5-9CS-6" value="Infrastructure" style="text;html=1;strokeColor=none;fillColor=none;align=center;verticalAlign=middle;whiteSpace=wrap;rounded=0;strokeWidth=1;fontColor=#000000;fontSize=14;rotation=30;" vertex="1" parent="1">
                    <mxGeometry x="667" y="327" width="110" height="30" as="geometry"/>
                </mxCell>
            </root>
        </mxGraphModel>
    </diagram>
    <diagram id="XNQHWRIo4FXKI_a9sFvW" name="コンポーネント設計">
        <mxGraphModel dx="2601" dy="1654" grid="1" gridSize="10" guides="1" tooltips="1" connect="1" arrows="1" fold="1" page="1" pageScale="1" pageWidth="1169" pageHeight="827" math="0" shadow="0">
            <root>
                <mxCell id="0"/>
                <mxCell id="1" parent="0"/>
                <mxCell id="6kzuDb1JmEHkEOtqRpod-5" value="" style="rounded=0;whiteSpace=wrap;html=1;strokeColor=#000000;strokeWidth=1;fontSize=14;fontColor=#000000;fillColor=#FFFFFF;" vertex="1" parent="1">
                    <mxGeometry x="-10" y="-80" width="1220" height="870" as="geometry"/>
                </mxCell>
                <mxCell id="6kzuDb1JmEHkEOtqRpod-1" value="Domain Model" style="shape=folder;fontStyle=1;tabWidth=190;tabHeight=30;tabPosition=left;html=1;boundedLbl=1;labelInHeader=1;container=1;collapsible=0;strokeColor=#000000;strokeWidth=1;fontSize=14;fontColor=#000000;fillColor=#FFFFFF;" vertex="1" parent="1">
                    <mxGeometry x="95" y="550" width="990" height="220" as="geometry"/>
                </mxCell>
                <mxCell id="6kzuDb1JmEHkEOtqRpod-2" value="" style="html=1;strokeColor=none;resizeWidth=1;resizeHeight=1;fillColor=none;part=1;connectable=0;allowArrows=0;deletable=0;strokeWidth=1;fontSize=14;fontColor=#000000;" vertex="1" parent="6kzuDb1JmEHkEOtqRpod-1">
                    <mxGeometry width="990" height="154" relative="1" as="geometry">
                        <mxPoint y="30" as="offset"/>
                    </mxGeometry>
                </mxCell>
                <mxCell id="6kzuDb1JmEHkEOtqRpod-75" value="&lt;b&gt;Domain Model Common&lt;/b&gt;" style="html=1;dropTarget=0;strokeColor=#000000;strokeWidth=1;fontSize=14;fontColor=#000000;fillColor=#FFFFFF;" vertex="1" parent="6kzuDb1JmEHkEOtqRpod-1">
                    <mxGeometry x="380" y="150" width="260" height="60" as="geometry"/>
                </mxCell>
                <mxCell id="6kzuDb1JmEHkEOtqRpod-76" value="" style="shape=module;jettyWidth=8;jettyHeight=4;strokeColor=#000000;strokeWidth=1;fontSize=14;fontColor=#000000;fillColor=#FFFFFF;" vertex="1" parent="6kzuDb1JmEHkEOtqRpod-75">
                    <mxGeometry x="1" width="20" height="20" relative="1" as="geometry">
                        <mxPoint x="-27" y="7" as="offset"/>
                    </mxGeometry>
                </mxCell>
                <mxCell id="6kzuDb1JmEHkEOtqRpod-77" value="&lt;b&gt;AAA Entity&lt;/b&gt;" style="html=1;dropTarget=0;strokeColor=#000000;strokeWidth=1;fontSize=14;fontColor=#000000;fillColor=#FFFFFF;" vertex="1" parent="6kzuDb1JmEHkEOtqRpod-1">
                    <mxGeometry x="180" y="60" width="160" height="60" as="geometry"/>
                </mxCell>
                <mxCell id="6kzuDb1JmEHkEOtqRpod-78" value="" style="shape=module;jettyWidth=8;jettyHeight=4;strokeColor=#000000;strokeWidth=1;fontSize=14;fontColor=#000000;fillColor=#FFFFFF;" vertex="1" parent="6kzuDb1JmEHkEOtqRpod-77">
                    <mxGeometry x="1" width="20" height="20" relative="1" as="geometry">
                        <mxPoint x="-27" y="7" as="offset"/>
                    </mxGeometry>
                </mxCell>
                <mxCell id="6kzuDb1JmEHkEOtqRpod-79" style="edgeStyle=none;html=1;fontSize=12;fontColor=#000000;strokeWidth=1;startSize=6;endSize=10;endArrow=open;endFill=0;" edge="1" parent="6kzuDb1JmEHkEOtqRpod-1" source="6kzuDb1JmEHkEOtqRpod-77" target="6kzuDb1JmEHkEOtqRpod-75">
                    <mxGeometry relative="1" as="geometry"/>
                </mxCell>
                <mxCell id="6kzuDb1JmEHkEOtqRpod-80" value="&lt;b&gt;BBB Entity&lt;/b&gt;" style="html=1;dropTarget=0;strokeColor=#000000;strokeWidth=1;fontSize=14;fontColor=#000000;fillColor=#FFFFFF;" vertex="1" parent="6kzuDb1JmEHkEOtqRpod-1">
                    <mxGeometry x="430" y="60" width="160" height="60" as="geometry"/>
                </mxCell>
                <mxCell id="6kzuDb1JmEHkEOtqRpod-81" value="" style="shape=module;jettyWidth=8;jettyHeight=4;strokeColor=#000000;strokeWidth=1;fontSize=14;fontColor=#000000;fillColor=#FFFFFF;" vertex="1" parent="6kzuDb1JmEHkEOtqRpod-80">
                    <mxGeometry x="1" width="20" height="20" relative="1" as="geometry">
                        <mxPoint x="-27" y="7" as="offset"/>
                    </mxGeometry>
                </mxCell>
                <mxCell id="6kzuDb1JmEHkEOtqRpod-82" style="edgeStyle=none;html=1;fontSize=12;fontColor=#000000;strokeWidth=1;startSize=6;endSize=10;endArrow=open;endFill=0;" edge="1" parent="6kzuDb1JmEHkEOtqRpod-1" source="6kzuDb1JmEHkEOtqRpod-80" target="6kzuDb1JmEHkEOtqRpod-75">
                    <mxGeometry relative="1" as="geometry"/>
                </mxCell>
                <mxCell id="6kzuDb1JmEHkEOtqRpod-83" value="&lt;b&gt;CCC Entity&lt;/b&gt;" style="html=1;dropTarget=0;strokeColor=#000000;strokeWidth=1;fontSize=14;fontColor=#000000;fillColor=#FFFFFF;" vertex="1" parent="6kzuDb1JmEHkEOtqRpod-1">
                    <mxGeometry x="685" y="60" width="160" height="60" as="geometry"/>
                </mxCell>
                <mxCell id="6kzuDb1JmEHkEOtqRpod-84" value="" style="shape=module;jettyWidth=8;jettyHeight=4;strokeColor=#000000;strokeWidth=1;fontSize=14;fontColor=#000000;fillColor=#FFFFFF;" vertex="1" parent="6kzuDb1JmEHkEOtqRpod-83">
                    <mxGeometry x="1" width="20" height="20" relative="1" as="geometry">
                        <mxPoint x="-27" y="7" as="offset"/>
                    </mxGeometry>
                </mxCell>
                <mxCell id="6kzuDb1JmEHkEOtqRpod-85" style="edgeStyle=none;html=1;fontSize=12;fontColor=#000000;strokeWidth=1;startSize=6;endSize=10;endArrow=open;endFill=0;" edge="1" parent="6kzuDb1JmEHkEOtqRpod-1" source="6kzuDb1JmEHkEOtqRpod-83" target="6kzuDb1JmEHkEOtqRpod-75">
                    <mxGeometry relative="1" as="geometry"/>
                </mxCell>
                <mxCell id="6kzuDb1JmEHkEOtqRpod-66" style="edgeStyle=none;html=1;fontSize=12;fontColor=#000000;strokeWidth=1;startSize=6;endSize=10;endArrow=open;endFill=0;" edge="1" parent="1" source="6kzuDb1JmEHkEOtqRpod-3" target="6kzuDb1JmEHkEOtqRpod-1">
                    <mxGeometry relative="1" as="geometry"/>
                </mxCell>
                <mxCell id="6kzuDb1JmEHkEOtqRpod-3" value="Domain Service" style="shape=folder;fontStyle=1;tabWidth=190;tabHeight=30;tabPosition=left;html=1;boundedLbl=1;labelInHeader=1;container=1;collapsible=0;strokeColor=#000000;strokeWidth=1;fontSize=14;fontColor=#000000;fillColor=#FFFFFF;" vertex="1" parent="1">
                    <mxGeometry x="660" y="380" width="480" height="140" as="geometry"/>
                </mxCell>
                <mxCell id="6kzuDb1JmEHkEOtqRpod-4" value="" style="html=1;strokeColor=none;resizeWidth=1;resizeHeight=1;fillColor=none;part=1;connectable=0;allowArrows=0;deletable=0;strokeWidth=1;fontSize=14;fontColor=#000000;" vertex="1" parent="6kzuDb1JmEHkEOtqRpod-3">
                    <mxGeometry width="480" height="98" relative="1" as="geometry">
                        <mxPoint y="30" as="offset"/>
                    </mxGeometry>
                </mxCell>
                <mxCell id="6kzuDb1JmEHkEOtqRpod-32" value="&lt;b&gt;Domain Service&lt;/b&gt;" style="html=1;dropTarget=0;strokeColor=#000000;strokeWidth=1;fontSize=14;fontColor=#000000;fillColor=#FFFFFF;" vertex="1" parent="6kzuDb1JmEHkEOtqRpod-3">
                    <mxGeometry x="30" y="50" width="190" height="60" as="geometry"/>
                </mxCell>
                <mxCell id="6kzuDb1JmEHkEOtqRpod-33" value="" style="shape=module;jettyWidth=8;jettyHeight=4;strokeColor=#000000;strokeWidth=1;fontSize=14;fontColor=#000000;fillColor=#FFFFFF;" vertex="1" parent="6kzuDb1JmEHkEOtqRpod-32">
                    <mxGeometry x="1" width="20" height="20" relative="1" as="geometry">
                        <mxPoint x="-27" y="7" as="offset"/>
                    </mxGeometry>
                </mxCell>
                <mxCell id="6kzuDb1JmEHkEOtqRpod-34" value="&lt;b&gt;Repository&lt;/b&gt;" style="html=1;dropTarget=0;strokeColor=#000000;strokeWidth=1;fontSize=14;fontColor=#000000;fillColor=#FFFFFF;" vertex="1" parent="6kzuDb1JmEHkEOtqRpod-3">
                    <mxGeometry x="290" y="50" width="160" height="60" as="geometry"/>
                </mxCell>
                <mxCell id="6kzuDb1JmEHkEOtqRpod-35" value="" style="shape=module;jettyWidth=8;jettyHeight=4;strokeColor=#000000;strokeWidth=1;fontSize=14;fontColor=#000000;fillColor=#FFFFFF;" vertex="1" parent="6kzuDb1JmEHkEOtqRpod-34">
                    <mxGeometry x="1" width="20" height="20" relative="1" as="geometry">
                        <mxPoint x="-27" y="7" as="offset"/>
                    </mxGeometry>
                </mxCell>
                <mxCell id="6kzuDb1JmEHkEOtqRpod-6" value="Application Service" style="shape=folder;fontStyle=1;tabWidth=190;tabHeight=30;tabPosition=left;html=1;boundedLbl=1;labelInHeader=1;container=1;collapsible=0;strokeColor=#000000;strokeWidth=1;fontSize=14;fontColor=#000000;fillColor=#FFFFFF;" vertex="1" parent="1">
                    <mxGeometry x="370" y="210" width="480" height="140" as="geometry"/>
                </mxCell>
                <mxCell id="6kzuDb1JmEHkEOtqRpod-7" value="" style="html=1;strokeColor=none;resizeWidth=1;resizeHeight=1;fillColor=none;part=1;connectable=0;allowArrows=0;deletable=0;strokeWidth=1;fontSize=14;fontColor=#000000;" vertex="1" parent="6kzuDb1JmEHkEOtqRpod-6">
                    <mxGeometry width="480" height="98" relative="1" as="geometry">
                        <mxPoint y="30" as="offset"/>
                    </mxGeometry>
                </mxCell>
                <mxCell id="6kzuDb1JmEHkEOtqRpod-38" value="&lt;b&gt;Feature&lt;/b&gt;" style="html=1;dropTarget=0;strokeColor=#000000;strokeWidth=1;fontSize=14;fontColor=#000000;fillColor=#FFFFFF;" vertex="1" parent="6kzuDb1JmEHkEOtqRpod-6">
                    <mxGeometry x="295" y="60" width="160" height="60" as="geometry"/>
                </mxCell>
                <mxCell id="6kzuDb1JmEHkEOtqRpod-39" value="" style="shape=module;jettyWidth=8;jettyHeight=4;strokeColor=#000000;strokeWidth=1;fontSize=14;fontColor=#000000;fillColor=#FFFFFF;" vertex="1" parent="6kzuDb1JmEHkEOtqRpod-38">
                    <mxGeometry x="1" width="20" height="20" relative="1" as="geometry">
                        <mxPoint x="-27" y="7" as="offset"/>
                    </mxGeometry>
                </mxCell>
                <mxCell id="6kzuDb1JmEHkEOtqRpod-36" value="&lt;b&gt;Usecase&lt;/b&gt;" style="html=1;dropTarget=0;strokeColor=#000000;strokeWidth=1;fontSize=14;fontColor=#000000;fillColor=#FFFFFF;" vertex="1" parent="6kzuDb1JmEHkEOtqRpod-6">
                    <mxGeometry x="50" y="60" width="160" height="60" as="geometry"/>
                </mxCell>
                <mxCell id="6kzuDb1JmEHkEOtqRpod-37" value="" style="shape=module;jettyWidth=8;jettyHeight=4;strokeColor=#000000;strokeWidth=1;fontSize=14;fontColor=#000000;fillColor=#FFFFFF;" vertex="1" parent="6kzuDb1JmEHkEOtqRpod-36">
                    <mxGeometry x="1" width="20" height="20" relative="1" as="geometry">
                        <mxPoint x="-27" y="7" as="offset"/>
                    </mxGeometry>
                </mxCell>
                <mxCell id="6kzuDb1JmEHkEOtqRpod-70" style="edgeStyle=none;html=1;strokeWidth=1;fontSize=12;fontColor=#000000;endArrow=open;endFill=0;startSize=6;endSize=10;" edge="1" parent="6kzuDb1JmEHkEOtqRpod-6" source="6kzuDb1JmEHkEOtqRpod-36" target="6kzuDb1JmEHkEOtqRpod-38">
                    <mxGeometry relative="1" as="geometry"/>
                </mxCell>
                <mxCell id="6kzuDb1JmEHkEOtqRpod-8" value="User Interface" style="shape=folder;fontStyle=1;tabWidth=190;tabHeight=30;tabPosition=left;html=1;boundedLbl=1;labelInHeader=1;container=1;collapsible=0;strokeColor=#000000;strokeWidth=1;fontSize=14;fontColor=#000000;fillColor=#FFFFFF;" vertex="1" parent="1">
                    <mxGeometry x="20" y="-60" width="490" height="240" as="geometry"/>
                </mxCell>
                <mxCell id="6kzuDb1JmEHkEOtqRpod-9" value="" style="html=1;strokeColor=none;resizeWidth=1;resizeHeight=1;fillColor=none;part=1;connectable=0;allowArrows=0;deletable=0;strokeWidth=1;fontSize=14;fontColor=#000000;" vertex="1" parent="6kzuDb1JmEHkEOtqRpod-8">
                    <mxGeometry width="490" height="168" relative="1" as="geometry">
                        <mxPoint y="30" as="offset"/>
                    </mxGeometry>
                </mxCell>
                <mxCell id="6kzuDb1JmEHkEOtqRpod-50" value="&lt;b&gt;UI Parts&lt;/b&gt;" style="html=1;dropTarget=0;strokeColor=#000000;strokeWidth=1;fontSize=14;fontColor=#000000;fillColor=#FFFFFF;" vertex="1" parent="6kzuDb1JmEHkEOtqRpod-8">
                    <mxGeometry x="75" y="150" width="160" height="60" as="geometry"/>
                </mxCell>
                <mxCell id="6kzuDb1JmEHkEOtqRpod-51" value="" style="shape=module;jettyWidth=8;jettyHeight=4;strokeColor=#000000;strokeWidth=1;fontSize=14;fontColor=#000000;fillColor=#FFFFFF;" vertex="1" parent="6kzuDb1JmEHkEOtqRpod-50">
                    <mxGeometry x="1" width="20" height="20" relative="1" as="geometry">
                        <mxPoint x="-27" y="7" as="offset"/>
                    </mxGeometry>
                </mxCell>
                <mxCell id="6kzuDb1JmEHkEOtqRpod-54" value="&lt;b&gt;WPF Libary&lt;br&gt;&lt;/b&gt;" style="html=1;dropTarget=0;strokeColor=#000000;strokeWidth=1;fontSize=14;fontColor=#000000;fillColor=#FFFFFF;" vertex="1" parent="6kzuDb1JmEHkEOtqRpod-8">
                    <mxGeometry x="300" y="150" width="160" height="60" as="geometry"/>
                </mxCell>
                <mxCell id="6kzuDb1JmEHkEOtqRpod-55" value="" style="shape=module;jettyWidth=8;jettyHeight=4;strokeColor=#000000;strokeWidth=1;fontSize=14;fontColor=#000000;fillColor=#FFFFFF;" vertex="1" parent="6kzuDb1JmEHkEOtqRpod-54">
                    <mxGeometry x="1" width="20" height="20" relative="1" as="geometry">
                        <mxPoint x="-27" y="7" as="offset"/>
                    </mxGeometry>
                </mxCell>
                <mxCell id="6kzuDb1JmEHkEOtqRpod-71" style="edgeStyle=none;html=1;strokeWidth=1;fontSize=12;fontColor=#000000;endArrow=open;endFill=0;startSize=6;endSize=10;" edge="1" parent="6kzuDb1JmEHkEOtqRpod-8" source="6kzuDb1JmEHkEOtqRpod-50" target="6kzuDb1JmEHkEOtqRpod-54">
                    <mxGeometry relative="1" as="geometry"/>
                </mxCell>
                <mxCell id="6kzuDb1JmEHkEOtqRpod-52" value="&lt;font style=&quot;font-size: 12px;&quot;&gt;&amp;lt;&amp;lt;スタートプロジェクト&amp;gt;&amp;gt;&lt;/font&gt;&lt;br&gt;&lt;b&gt;WPF App1&lt;/b&gt;" style="html=1;dropTarget=0;strokeColor=#000000;strokeWidth=1;fontSize=14;fontColor=#000000;fillColor=#FFFFFF;" vertex="1" parent="6kzuDb1JmEHkEOtqRpod-8">
                    <mxGeometry x="30" y="50" width="240" height="60" as="geometry"/>
                </mxCell>
                <mxCell id="6kzuDb1JmEHkEOtqRpod-53" value="" style="shape=module;jettyWidth=8;jettyHeight=4;strokeColor=#000000;strokeWidth=1;fontSize=14;fontColor=#000000;fillColor=#FFFFFF;" vertex="1" parent="6kzuDb1JmEHkEOtqRpod-52">
                    <mxGeometry x="1" width="20" height="20" relative="1" as="geometry">
                        <mxPoint x="-27" y="7" as="offset"/>
                    </mxGeometry>
                </mxCell>
                <mxCell id="6kzuDb1JmEHkEOtqRpod-72" style="edgeStyle=none;html=1;strokeWidth=1;fontSize=12;fontColor=#000000;endArrow=open;endFill=0;startSize=6;endSize=10;" edge="1" parent="6kzuDb1JmEHkEOtqRpod-8" source="6kzuDb1JmEHkEOtqRpod-52" target="6kzuDb1JmEHkEOtqRpod-50">
                    <mxGeometry relative="1" as="geometry"/>
                </mxCell>
                <mxCell id="6kzuDb1JmEHkEOtqRpod-10" value="Infrastructure" style="shape=folder;fontStyle=1;tabWidth=190;tabHeight=30;tabPosition=left;html=1;boundedLbl=1;labelInHeader=1;container=1;collapsible=0;strokeColor=#000000;strokeWidth=1;fontSize=14;fontColor=#000000;fillColor=#FFFFFF;" vertex="1" parent="1">
                    <mxGeometry x="700" y="30" width="480" height="140" as="geometry"/>
                </mxCell>
                <mxCell id="6kzuDb1JmEHkEOtqRpod-11" value="" style="html=1;strokeColor=none;resizeWidth=1;resizeHeight=1;fillColor=none;part=1;connectable=0;allowArrows=0;deletable=0;strokeWidth=1;fontSize=14;fontColor=#000000;" vertex="1" parent="6kzuDb1JmEHkEOtqRpod-10">
                    <mxGeometry width="480" height="98" relative="1" as="geometry">
                        <mxPoint y="30" as="offset"/>
                    </mxGeometry>
                </mxCell>
                <mxCell id="6kzuDb1JmEHkEOtqRpod-42" value="&lt;b&gt;FileAccessor&lt;/b&gt;" style="html=1;dropTarget=0;strokeColor=#000000;strokeWidth=1;fontSize=14;fontColor=#000000;fillColor=#FFFFFF;" vertex="1" parent="6kzuDb1JmEHkEOtqRpod-10">
                    <mxGeometry x="30" y="60" width="160" height="60" as="geometry"/>
                </mxCell>
                <mxCell id="6kzuDb1JmEHkEOtqRpod-43" value="" style="shape=module;jettyWidth=8;jettyHeight=4;strokeColor=#000000;strokeWidth=1;fontSize=14;fontColor=#000000;fillColor=#FFFFFF;" vertex="1" parent="6kzuDb1JmEHkEOtqRpod-42">
                    <mxGeometry x="1" width="20" height="20" relative="1" as="geometry">
                        <mxPoint x="-27" y="7" as="offset"/>
                    </mxGeometry>
                </mxCell>
                <mxCell id="6kzuDb1JmEHkEOtqRpod-40" value="&lt;b&gt;In Memory Repository&lt;/b&gt;" style="html=1;dropTarget=0;strokeColor=#000000;strokeWidth=1;fontSize=14;fontColor=#000000;fillColor=#FFFFFF;" vertex="1" parent="6kzuDb1JmEHkEOtqRpod-10">
                    <mxGeometry x="230" y="60" width="230" height="60" as="geometry"/>
                </mxCell>
                <mxCell id="6kzuDb1JmEHkEOtqRpod-41" value="" style="shape=module;jettyWidth=8;jettyHeight=4;strokeColor=#000000;strokeWidth=1;fontSize=14;fontColor=#000000;fillColor=#FFFFFF;" vertex="1" parent="6kzuDb1JmEHkEOtqRpod-40">
                    <mxGeometry x="1" width="20" height="20" relative="1" as="geometry">
                        <mxPoint x="-27" y="7" as="offset"/>
                    </mxGeometry>
                </mxCell>
                <mxCell id="6kzuDb1JmEHkEOtqRpod-69" style="edgeStyle=none;html=1;strokeWidth=1;fontSize=12;fontColor=#000000;endArrow=open;endFill=0;startSize=6;endSize=10;" edge="1" parent="1" source="6kzuDb1JmEHkEOtqRpod-50" target="6kzuDb1JmEHkEOtqRpod-36">
                    <mxGeometry relative="1" as="geometry"/>
                </mxCell>
                <mxCell id="6kzuDb1JmEHkEOtqRpod-67" style="edgeStyle=none;html=1;fontSize=12;fontColor=#000000;strokeWidth=1;startSize=6;endSize=10;endArrow=open;endFill=0;" edge="1" parent="1" source="6kzuDb1JmEHkEOtqRpod-6" target="6kzuDb1JmEHkEOtqRpod-3">
                    <mxGeometry relative="1" as="geometry">
                        <Array as="points"/>
                    </mxGeometry>
                </mxCell>
                <mxCell id="6kzuDb1JmEHkEOtqRpod-68" style="edgeStyle=none;html=1;fontSize=12;fontColor=#000000;strokeWidth=1;startSize=6;endSize=10;endArrow=open;endFill=0;" edge="1" parent="1" source="6kzuDb1JmEHkEOtqRpod-6" target="6kzuDb1JmEHkEOtqRpod-1">
                    <mxGeometry relative="1" as="geometry"/>
                </mxCell>
                <mxCell id="6kzuDb1JmEHkEOtqRpod-73" style="edgeStyle=none;html=1;strokeWidth=1;fontSize=12;fontColor=#000000;endArrow=block;endFill=0;startSize=6;endSize=10;" edge="1" parent="1" source="6kzuDb1JmEHkEOtqRpod-42" target="6kzuDb1JmEHkEOtqRpod-38">
                    <mxGeometry relative="1" as="geometry"/>
                </mxCell>
                <mxCell id="6kzuDb1JmEHkEOtqRpod-74" style="edgeStyle=none;html=1;strokeWidth=1;fontSize=12;fontColor=#000000;endArrow=block;endFill=0;startSize=6;endSize=10;" edge="1" parent="1" source="6kzuDb1JmEHkEOtqRpod-40" target="6kzuDb1JmEHkEOtqRpod-34">
                    <mxGeometry relative="1" as="geometry"/>
                </mxCell>
                <mxCell id="6kzuDb1JmEHkEOtqRpod-86" style="edgeStyle=none;html=1;strokeWidth=1;fontSize=12;fontColor=#000000;endArrow=open;endFill=0;startSize=6;endSize=10;" edge="1" parent="1" source="6kzuDb1JmEHkEOtqRpod-50" target="6kzuDb1JmEHkEOtqRpod-1">
                    <mxGeometry relative="1" as="geometry">
                        <Array as="points">
                            <mxPoint x="270" y="410"/>
                        </Array>
                    </mxGeometry>
                </mxCell>
                <mxCell id="XcygnZ4-nVqDFQ8usrgL-1" style="edgeStyle=none;html=1;strokeWidth=1;fontSize=12;fontColor=#000000;endArrow=open;endFill=0;startSize=6;endSize=10;" edge="1" parent="1" source="6kzuDb1JmEHkEOtqRpod-50" target="6kzuDb1JmEHkEOtqRpod-32">
                    <mxGeometry relative="1" as="geometry">
                        <Array as="points">
                            <mxPoint x="390" y="430"/>
                        </Array>
                    </mxGeometry>
                </mxCell>
            </root>
        </mxGraphModel>
    </diagram>
    <diagram id="Glnc-RPrkVf3ncVpPrvm" name="Domain Model層コンポーネント">
        <mxGraphModel dx="2601" dy="1654" grid="1" gridSize="10" guides="1" tooltips="1" connect="1" arrows="1" fold="1" page="1" pageScale="1" pageWidth="1169" pageHeight="827" math="0" shadow="0">
            <root>
                <mxCell id="0"/>
                <mxCell id="1" parent="0"/>
                <mxCell id="6lfeiwfBQ4u3_A6H4nGH-1" value="" style="rounded=0;whiteSpace=wrap;html=1;strokeColor=#000000;strokeWidth=1;fontSize=14;fontColor=#000000;fillColor=#FFFFFF;" vertex="1" parent="1">
                    <mxGeometry x="-10" y="-80" width="1220" height="870" as="geometry"/>
                </mxCell>
                <mxCell id="6lfeiwfBQ4u3_A6H4nGH-2" value="Domain Model" style="shape=folder;fontStyle=1;tabWidth=190;tabHeight=30;tabPosition=left;html=1;boundedLbl=1;labelInHeader=1;container=1;collapsible=0;strokeColor=#d6b656;strokeWidth=1;fontSize=14;fillColor=#fff2cc;" vertex="1" parent="1">
                    <mxGeometry x="95" y="550" width="990" height="220" as="geometry"/>
                </mxCell>
                <mxCell id="6lfeiwfBQ4u3_A6H4nGH-3" value="" style="html=1;strokeColor=none;resizeWidth=1;resizeHeight=1;fillColor=none;part=1;connectable=0;allowArrows=0;deletable=0;strokeWidth=1;fontSize=14;fontColor=#000000;" vertex="1" parent="6lfeiwfBQ4u3_A6H4nGH-2">
                    <mxGeometry width="990" height="154" relative="1" as="geometry">
                        <mxPoint y="30" as="offset"/>
                    </mxGeometry>
                </mxCell>
                <mxCell id="6lfeiwfBQ4u3_A6H4nGH-4" value="&lt;b&gt;Domain Model Common&lt;/b&gt;" style="html=1;dropTarget=0;strokeColor=#000000;strokeWidth=1;fontSize=14;fontColor=#000000;fillColor=#FFFFFF;" vertex="1" parent="6lfeiwfBQ4u3_A6H4nGH-2">
                    <mxGeometry x="380" y="150" width="260" height="60" as="geometry"/>
                </mxCell>
                <mxCell id="6lfeiwfBQ4u3_A6H4nGH-5" value="" style="shape=module;jettyWidth=8;jettyHeight=4;strokeColor=#000000;strokeWidth=1;fontSize=14;fontColor=#000000;fillColor=#FFFFFF;" vertex="1" parent="6lfeiwfBQ4u3_A6H4nGH-4">
                    <mxGeometry x="1" width="20" height="20" relative="1" as="geometry">
                        <mxPoint x="-27" y="7" as="offset"/>
                    </mxGeometry>
                </mxCell>
                <mxCell id="6lfeiwfBQ4u3_A6H4nGH-6" value="&lt;b&gt;AAA Entity&lt;/b&gt;" style="html=1;dropTarget=0;strokeColor=#000000;strokeWidth=1;fontSize=14;fontColor=#000000;fillColor=#FFFFFF;" vertex="1" parent="6lfeiwfBQ4u3_A6H4nGH-2">
                    <mxGeometry x="180" y="60" width="160" height="60" as="geometry"/>
                </mxCell>
                <mxCell id="6lfeiwfBQ4u3_A6H4nGH-7" value="" style="shape=module;jettyWidth=8;jettyHeight=4;strokeColor=#000000;strokeWidth=1;fontSize=14;fontColor=#000000;fillColor=#FFFFFF;" vertex="1" parent="6lfeiwfBQ4u3_A6H4nGH-6">
                    <mxGeometry x="1" width="20" height="20" relative="1" as="geometry">
                        <mxPoint x="-27" y="7" as="offset"/>
                    </mxGeometry>
                </mxCell>
                <mxCell id="6lfeiwfBQ4u3_A6H4nGH-8" style="edgeStyle=none;html=1;fontSize=12;fontColor=#000000;strokeWidth=1;startSize=6;endSize=10;endArrow=open;endFill=0;" edge="1" parent="6lfeiwfBQ4u3_A6H4nGH-2" source="6lfeiwfBQ4u3_A6H4nGH-6" target="6lfeiwfBQ4u3_A6H4nGH-4">
                    <mxGeometry relative="1" as="geometry"/>
                </mxCell>
                <mxCell id="6lfeiwfBQ4u3_A6H4nGH-9" value="&lt;b&gt;BBB Entity&lt;/b&gt;" style="html=1;dropTarget=0;strokeColor=#000000;strokeWidth=1;fontSize=14;fontColor=#000000;fillColor=#FFFFFF;" vertex="1" parent="6lfeiwfBQ4u3_A6H4nGH-2">
                    <mxGeometry x="430" y="60" width="160" height="60" as="geometry"/>
                </mxCell>
                <mxCell id="6lfeiwfBQ4u3_A6H4nGH-10" value="" style="shape=module;jettyWidth=8;jettyHeight=4;strokeColor=#000000;strokeWidth=1;fontSize=14;fontColor=#000000;fillColor=#FFFFFF;" vertex="1" parent="6lfeiwfBQ4u3_A6H4nGH-9">
                    <mxGeometry x="1" width="20" height="20" relative="1" as="geometry">
                        <mxPoint x="-27" y="7" as="offset"/>
                    </mxGeometry>
                </mxCell>
                <mxCell id="6lfeiwfBQ4u3_A6H4nGH-11" style="edgeStyle=none;html=1;fontSize=12;fontColor=#000000;strokeWidth=1;startSize=6;endSize=10;endArrow=open;endFill=0;" edge="1" parent="6lfeiwfBQ4u3_A6H4nGH-2" source="6lfeiwfBQ4u3_A6H4nGH-9" target="6lfeiwfBQ4u3_A6H4nGH-4">
                    <mxGeometry relative="1" as="geometry"/>
                </mxCell>
                <mxCell id="6lfeiwfBQ4u3_A6H4nGH-12" value="&lt;b&gt;CCC Entity&lt;/b&gt;" style="html=1;dropTarget=0;strokeColor=#000000;strokeWidth=1;fontSize=14;fontColor=#000000;fillColor=#FFFFFF;" vertex="1" parent="6lfeiwfBQ4u3_A6H4nGH-2">
                    <mxGeometry x="685" y="60" width="160" height="60" as="geometry"/>
                </mxCell>
                <mxCell id="6lfeiwfBQ4u3_A6H4nGH-13" value="" style="shape=module;jettyWidth=8;jettyHeight=4;strokeColor=#000000;strokeWidth=1;fontSize=14;fontColor=#000000;fillColor=#FFFFFF;" vertex="1" parent="6lfeiwfBQ4u3_A6H4nGH-12">
                    <mxGeometry x="1" width="20" height="20" relative="1" as="geometry">
                        <mxPoint x="-27" y="7" as="offset"/>
                    </mxGeometry>
                </mxCell>
                <mxCell id="6lfeiwfBQ4u3_A6H4nGH-14" style="edgeStyle=none;html=1;fontSize=12;fontColor=#000000;strokeWidth=1;startSize=6;endSize=10;endArrow=open;endFill=0;" edge="1" parent="6lfeiwfBQ4u3_A6H4nGH-2" source="6lfeiwfBQ4u3_A6H4nGH-12" target="6lfeiwfBQ4u3_A6H4nGH-4">
                    <mxGeometry relative="1" as="geometry"/>
                </mxCell>
                <mxCell id="6lfeiwfBQ4u3_A6H4nGH-15" style="edgeStyle=none;html=1;fontSize=12;fontColor=#000000;strokeWidth=1;startSize=6;endSize=10;endArrow=open;endFill=0;" edge="1" parent="1" source="6lfeiwfBQ4u3_A6H4nGH-16" target="6lfeiwfBQ4u3_A6H4nGH-2">
                    <mxGeometry relative="1" as="geometry"/>
                </mxCell>
                <mxCell id="6lfeiwfBQ4u3_A6H4nGH-16" value="Domain Service" style="shape=folder;fontStyle=1;tabWidth=190;tabHeight=30;tabPosition=left;html=1;boundedLbl=1;labelInHeader=1;container=1;collapsible=0;strokeColor=#000000;strokeWidth=1;fontSize=14;fontColor=#000000;fillColor=#FFFFFF;" vertex="1" parent="1">
                    <mxGeometry x="650" y="380" width="480" height="140" as="geometry"/>
                </mxCell>
                <mxCell id="6lfeiwfBQ4u3_A6H4nGH-17" value="" style="html=1;strokeColor=none;resizeWidth=1;resizeHeight=1;fillColor=none;part=1;connectable=0;allowArrows=0;deletable=0;strokeWidth=1;fontSize=14;fontColor=#000000;" vertex="1" parent="6lfeiwfBQ4u3_A6H4nGH-16">
                    <mxGeometry width="480" height="98" relative="1" as="geometry">
                        <mxPoint y="30" as="offset"/>
                    </mxGeometry>
                </mxCell>
                <mxCell id="6lfeiwfBQ4u3_A6H4nGH-18" value="&lt;b&gt;Domain Service&lt;/b&gt;" style="html=1;dropTarget=0;strokeColor=#000000;strokeWidth=1;fontSize=14;fontColor=#000000;fillColor=#FFFFFF;" vertex="1" parent="6lfeiwfBQ4u3_A6H4nGH-16">
                    <mxGeometry x="30" y="50" width="190" height="60" as="geometry"/>
                </mxCell>
                <mxCell id="6lfeiwfBQ4u3_A6H4nGH-19" value="" style="shape=module;jettyWidth=8;jettyHeight=4;strokeColor=#000000;strokeWidth=1;fontSize=14;fontColor=#000000;fillColor=#FFFFFF;" vertex="1" parent="6lfeiwfBQ4u3_A6H4nGH-18">
                    <mxGeometry x="1" width="20" height="20" relative="1" as="geometry">
                        <mxPoint x="-27" y="7" as="offset"/>
                    </mxGeometry>
                </mxCell>
                <mxCell id="6lfeiwfBQ4u3_A6H4nGH-20" value="&lt;b&gt;Repository&lt;/b&gt;" style="html=1;dropTarget=0;strokeColor=#000000;strokeWidth=1;fontSize=14;fontColor=#000000;fillColor=#FFFFFF;" vertex="1" parent="6lfeiwfBQ4u3_A6H4nGH-16">
                    <mxGeometry x="290" y="50" width="160" height="60" as="geometry"/>
                </mxCell>
                <mxCell id="6lfeiwfBQ4u3_A6H4nGH-21" value="" style="shape=module;jettyWidth=8;jettyHeight=4;strokeColor=#000000;strokeWidth=1;fontSize=14;fontColor=#000000;fillColor=#FFFFFF;" vertex="1" parent="6lfeiwfBQ4u3_A6H4nGH-20">
                    <mxGeometry x="1" width="20" height="20" relative="1" as="geometry">
                        <mxPoint x="-27" y="7" as="offset"/>
                    </mxGeometry>
                </mxCell>
                <mxCell id="6lfeiwfBQ4u3_A6H4nGH-22" value="Application Service" style="shape=folder;fontStyle=1;tabWidth=190;tabHeight=30;tabPosition=left;html=1;boundedLbl=1;labelInHeader=1;container=1;collapsible=0;strokeColor=#000000;strokeWidth=1;fontSize=14;fontColor=#000000;fillColor=#FFFFFF;" vertex="1" parent="1">
                    <mxGeometry x="370" y="210" width="480" height="140" as="geometry"/>
                </mxCell>
                <mxCell id="6lfeiwfBQ4u3_A6H4nGH-23" value="" style="html=1;strokeColor=none;resizeWidth=1;resizeHeight=1;fillColor=none;part=1;connectable=0;allowArrows=0;deletable=0;strokeWidth=1;fontSize=14;fontColor=#000000;" vertex="1" parent="6lfeiwfBQ4u3_A6H4nGH-22">
                    <mxGeometry width="480" height="98" relative="1" as="geometry">
                        <mxPoint y="30" as="offset"/>
                    </mxGeometry>
                </mxCell>
                <mxCell id="6lfeiwfBQ4u3_A6H4nGH-24" value="&lt;b&gt;Feature&lt;/b&gt;" style="html=1;dropTarget=0;strokeColor=#000000;strokeWidth=1;fontSize=14;fontColor=#000000;fillColor=#FFFFFF;" vertex="1" parent="6lfeiwfBQ4u3_A6H4nGH-22">
                    <mxGeometry x="295" y="60" width="160" height="60" as="geometry"/>
                </mxCell>
                <mxCell id="6lfeiwfBQ4u3_A6H4nGH-25" value="" style="shape=module;jettyWidth=8;jettyHeight=4;strokeColor=#000000;strokeWidth=1;fontSize=14;fontColor=#000000;fillColor=#FFFFFF;" vertex="1" parent="6lfeiwfBQ4u3_A6H4nGH-24">
                    <mxGeometry x="1" width="20" height="20" relative="1" as="geometry">
                        <mxPoint x="-27" y="7" as="offset"/>
                    </mxGeometry>
                </mxCell>
                <mxCell id="6lfeiwfBQ4u3_A6H4nGH-26" value="&lt;b&gt;Usecase&lt;/b&gt;" style="html=1;dropTarget=0;strokeColor=#000000;strokeWidth=1;fontSize=14;fontColor=#000000;fillColor=#FFFFFF;" vertex="1" parent="6lfeiwfBQ4u3_A6H4nGH-22">
                    <mxGeometry x="50" y="60" width="160" height="60" as="geometry"/>
                </mxCell>
                <mxCell id="6lfeiwfBQ4u3_A6H4nGH-27" value="" style="shape=module;jettyWidth=8;jettyHeight=4;strokeColor=#000000;strokeWidth=1;fontSize=14;fontColor=#000000;fillColor=#FFFFFF;" vertex="1" parent="6lfeiwfBQ4u3_A6H4nGH-26">
                    <mxGeometry x="1" width="20" height="20" relative="1" as="geometry">
                        <mxPoint x="-27" y="7" as="offset"/>
                    </mxGeometry>
                </mxCell>
                <mxCell id="6lfeiwfBQ4u3_A6H4nGH-28" style="edgeStyle=none;html=1;strokeWidth=1;fontSize=12;fontColor=#000000;endArrow=open;endFill=0;startSize=6;endSize=10;" edge="1" parent="6lfeiwfBQ4u3_A6H4nGH-22" source="6lfeiwfBQ4u3_A6H4nGH-26" target="6lfeiwfBQ4u3_A6H4nGH-24">
                    <mxGeometry relative="1" as="geometry"/>
                </mxCell>
                <mxCell id="6lfeiwfBQ4u3_A6H4nGH-29" value="User Interface" style="shape=folder;fontStyle=1;tabWidth=190;tabHeight=30;tabPosition=left;html=1;boundedLbl=1;labelInHeader=1;container=1;collapsible=0;strokeColor=#000000;strokeWidth=1;fontSize=14;fontColor=#000000;fillColor=#FFFFFF;" vertex="1" parent="1">
                    <mxGeometry x="20" y="-60" width="490" height="240" as="geometry"/>
                </mxCell>
                <mxCell id="6lfeiwfBQ4u3_A6H4nGH-30" value="" style="html=1;strokeColor=none;resizeWidth=1;resizeHeight=1;fillColor=none;part=1;connectable=0;allowArrows=0;deletable=0;strokeWidth=1;fontSize=14;fontColor=#000000;" vertex="1" parent="6lfeiwfBQ4u3_A6H4nGH-29">
                    <mxGeometry width="490" height="168" relative="1" as="geometry">
                        <mxPoint y="30" as="offset"/>
                    </mxGeometry>
                </mxCell>
                <mxCell id="6lfeiwfBQ4u3_A6H4nGH-31" value="&lt;b&gt;UI Parts&lt;/b&gt;" style="html=1;dropTarget=0;strokeColor=#000000;strokeWidth=1;fontSize=14;fontColor=#000000;fillColor=#FFFFFF;" vertex="1" parent="6lfeiwfBQ4u3_A6H4nGH-29">
                    <mxGeometry x="75" y="150" width="160" height="60" as="geometry"/>
                </mxCell>
                <mxCell id="6lfeiwfBQ4u3_A6H4nGH-32" value="" style="shape=module;jettyWidth=8;jettyHeight=4;strokeColor=#000000;strokeWidth=1;fontSize=14;fontColor=#000000;fillColor=#FFFFFF;" vertex="1" parent="6lfeiwfBQ4u3_A6H4nGH-31">
                    <mxGeometry x="1" width="20" height="20" relative="1" as="geometry">
                        <mxPoint x="-27" y="7" as="offset"/>
                    </mxGeometry>
                </mxCell>
                <mxCell id="6lfeiwfBQ4u3_A6H4nGH-33" value="&lt;b&gt;WPF Libary&lt;br&gt;&lt;/b&gt;" style="html=1;dropTarget=0;strokeColor=#000000;strokeWidth=1;fontSize=14;fontColor=#000000;fillColor=#FFFFFF;" vertex="1" parent="6lfeiwfBQ4u3_A6H4nGH-29">
                    <mxGeometry x="300" y="150" width="160" height="60" as="geometry"/>
                </mxCell>
                <mxCell id="6lfeiwfBQ4u3_A6H4nGH-34" value="" style="shape=module;jettyWidth=8;jettyHeight=4;strokeColor=#000000;strokeWidth=1;fontSize=14;fontColor=#000000;fillColor=#FFFFFF;" vertex="1" parent="6lfeiwfBQ4u3_A6H4nGH-33">
                    <mxGeometry x="1" width="20" height="20" relative="1" as="geometry">
                        <mxPoint x="-27" y="7" as="offset"/>
                    </mxGeometry>
                </mxCell>
                <mxCell id="6lfeiwfBQ4u3_A6H4nGH-35" style="edgeStyle=none;html=1;strokeWidth=1;fontSize=12;fontColor=#000000;endArrow=open;endFill=0;startSize=6;endSize=10;" edge="1" parent="6lfeiwfBQ4u3_A6H4nGH-29" source="6lfeiwfBQ4u3_A6H4nGH-31" target="6lfeiwfBQ4u3_A6H4nGH-33">
                    <mxGeometry relative="1" as="geometry"/>
                </mxCell>
                <mxCell id="6lfeiwfBQ4u3_A6H4nGH-36" value="&lt;font style=&quot;font-size: 12px;&quot;&gt;&amp;lt;&amp;lt;スタートプロジェクト&amp;gt;&amp;gt;&lt;/font&gt;&lt;br&gt;&lt;b&gt;WPF App1&lt;/b&gt;" style="html=1;dropTarget=0;strokeColor=#000000;strokeWidth=1;fontSize=14;fontColor=#000000;fillColor=#FFFFFF;" vertex="1" parent="6lfeiwfBQ4u3_A6H4nGH-29">
                    <mxGeometry x="30" y="50" width="240" height="60" as="geometry"/>
                </mxCell>
                <mxCell id="6lfeiwfBQ4u3_A6H4nGH-37" value="" style="shape=module;jettyWidth=8;jettyHeight=4;strokeColor=#000000;strokeWidth=1;fontSize=14;fontColor=#000000;fillColor=#FFFFFF;" vertex="1" parent="6lfeiwfBQ4u3_A6H4nGH-36">
                    <mxGeometry x="1" width="20" height="20" relative="1" as="geometry">
                        <mxPoint x="-27" y="7" as="offset"/>
                    </mxGeometry>
                </mxCell>
                <mxCell id="6lfeiwfBQ4u3_A6H4nGH-38" style="edgeStyle=none;html=1;strokeWidth=1;fontSize=12;fontColor=#000000;endArrow=open;endFill=0;startSize=6;endSize=10;" edge="1" parent="6lfeiwfBQ4u3_A6H4nGH-29" source="6lfeiwfBQ4u3_A6H4nGH-36" target="6lfeiwfBQ4u3_A6H4nGH-31">
                    <mxGeometry relative="1" as="geometry"/>
                </mxCell>
                <mxCell id="6lfeiwfBQ4u3_A6H4nGH-45" style="edgeStyle=none;html=1;strokeWidth=1;fontSize=12;fontColor=#000000;endArrow=open;endFill=0;startSize=6;endSize=10;" edge="1" parent="1" source="6lfeiwfBQ4u3_A6H4nGH-31" target="6lfeiwfBQ4u3_A6H4nGH-26">
                    <mxGeometry relative="1" as="geometry"/>
                </mxCell>
                <mxCell id="6lfeiwfBQ4u3_A6H4nGH-46" style="edgeStyle=none;html=1;fontSize=12;fontColor=#000000;strokeWidth=1;startSize=6;endSize=10;endArrow=open;endFill=0;" edge="1" parent="1" source="6lfeiwfBQ4u3_A6H4nGH-22" target="6lfeiwfBQ4u3_A6H4nGH-16">
                    <mxGeometry relative="1" as="geometry">
                        <Array as="points"/>
                    </mxGeometry>
                </mxCell>
                <mxCell id="6lfeiwfBQ4u3_A6H4nGH-47" style="edgeStyle=none;html=1;fontSize=12;fontColor=#000000;strokeWidth=1;startSize=6;endSize=10;endArrow=open;endFill=0;" edge="1" parent="1" source="6lfeiwfBQ4u3_A6H4nGH-22" target="6lfeiwfBQ4u3_A6H4nGH-2">
                    <mxGeometry relative="1" as="geometry"/>
                </mxCell>
                <mxCell id="6lfeiwfBQ4u3_A6H4nGH-50" style="edgeStyle=none;html=1;strokeWidth=1;fontSize=12;fontColor=#000000;endArrow=open;endFill=0;startSize=6;endSize=10;" edge="1" parent="1" source="6lfeiwfBQ4u3_A6H4nGH-31" target="6lfeiwfBQ4u3_A6H4nGH-2">
                    <mxGeometry relative="1" as="geometry">
                        <Array as="points">
                            <mxPoint x="250" y="400"/>
                        </Array>
                    </mxGeometry>
                </mxCell>
                <mxCell id="rHH9KxjOXhTf-HVeJsbz-1" style="edgeStyle=none;html=1;strokeWidth=1;fontSize=12;fontColor=#000000;endArrow=open;endFill=0;startSize=6;endSize=10;" edge="1" parent="1" source="6lfeiwfBQ4u3_A6H4nGH-31" target="6lfeiwfBQ4u3_A6H4nGH-18">
                    <mxGeometry relative="1" as="geometry">
                        <Array as="points">
                            <mxPoint x="340" y="390"/>
                        </Array>
                    </mxGeometry>
                </mxCell>
            </root>
        </mxGraphModel>
    </diagram>
    <diagram id="pgBKVrbgzWvnmwW0H1BZ" name="Domain Service層コンポーネント">
        <mxGraphModel dx="2601" dy="827" grid="1" gridSize="10" guides="1" tooltips="1" connect="1" arrows="1" fold="1" page="1" pageScale="1" pageWidth="1169" pageHeight="827" math="0" shadow="0">
            <root>
                <mxCell id="0"/>
                <mxCell id="1" parent="0"/>
                <mxCell id="GLHK2XZ-IV7IDvXL2LE--1" value="" style="rounded=0;whiteSpace=wrap;html=1;strokeColor=#000000;strokeWidth=1;fontSize=14;fontColor=#000000;fillColor=#FFFFFF;" vertex="1" parent="1">
                    <mxGeometry x="-10" width="1220" height="790" as="geometry"/>
                </mxCell>
                <mxCell id="GLHK2XZ-IV7IDvXL2LE--2" value="Domain Model" style="shape=folder;fontStyle=1;tabWidth=190;tabHeight=30;tabPosition=left;html=1;boundedLbl=1;labelInHeader=1;container=1;collapsible=0;strokeColor=#000000;strokeWidth=1;fontSize=14;fontColor=#000000;fillColor=#FFFFFF;" vertex="1" parent="1">
                    <mxGeometry x="95" y="550" width="990" height="220" as="geometry"/>
                </mxCell>
                <mxCell id="GLHK2XZ-IV7IDvXL2LE--3" value="" style="html=1;strokeColor=none;resizeWidth=1;resizeHeight=1;fillColor=none;part=1;connectable=0;allowArrows=0;deletable=0;strokeWidth=1;fontSize=14;fontColor=#000000;" vertex="1" parent="GLHK2XZ-IV7IDvXL2LE--2">
                    <mxGeometry width="990" height="154" relative="1" as="geometry">
                        <mxPoint y="30" as="offset"/>
                    </mxGeometry>
                </mxCell>
                <mxCell id="GLHK2XZ-IV7IDvXL2LE--4" value="&lt;b&gt;Domain Model Common&lt;/b&gt;" style="html=1;dropTarget=0;strokeColor=#000000;strokeWidth=1;fontSize=14;fontColor=#000000;fillColor=#FFFFFF;" vertex="1" parent="GLHK2XZ-IV7IDvXL2LE--2">
                    <mxGeometry x="380" y="150" width="260" height="60" as="geometry"/>
                </mxCell>
                <mxCell id="GLHK2XZ-IV7IDvXL2LE--5" value="" style="shape=module;jettyWidth=8;jettyHeight=4;strokeColor=#000000;strokeWidth=1;fontSize=14;fontColor=#000000;fillColor=#FFFFFF;" vertex="1" parent="GLHK2XZ-IV7IDvXL2LE--4">
                    <mxGeometry x="1" width="20" height="20" relative="1" as="geometry">
                        <mxPoint x="-27" y="7" as="offset"/>
                    </mxGeometry>
                </mxCell>
                <mxCell id="GLHK2XZ-IV7IDvXL2LE--6" value="&lt;b&gt;AAA Entity&lt;/b&gt;" style="html=1;dropTarget=0;strokeColor=#000000;strokeWidth=1;fontSize=14;fontColor=#000000;fillColor=#FFFFFF;" vertex="1" parent="GLHK2XZ-IV7IDvXL2LE--2">
                    <mxGeometry x="180" y="60" width="160" height="60" as="geometry"/>
                </mxCell>
                <mxCell id="GLHK2XZ-IV7IDvXL2LE--7" value="" style="shape=module;jettyWidth=8;jettyHeight=4;strokeColor=#000000;strokeWidth=1;fontSize=14;fontColor=#000000;fillColor=#FFFFFF;" vertex="1" parent="GLHK2XZ-IV7IDvXL2LE--6">
                    <mxGeometry x="1" width="20" height="20" relative="1" as="geometry">
                        <mxPoint x="-27" y="7" as="offset"/>
                    </mxGeometry>
                </mxCell>
                <mxCell id="GLHK2XZ-IV7IDvXL2LE--8" style="edgeStyle=none;html=1;fontSize=12;fontColor=#000000;strokeWidth=1;startSize=6;endSize=10;endArrow=open;endFill=0;" edge="1" parent="GLHK2XZ-IV7IDvXL2LE--2" source="GLHK2XZ-IV7IDvXL2LE--6" target="GLHK2XZ-IV7IDvXL2LE--4">
                    <mxGeometry relative="1" as="geometry"/>
                </mxCell>
                <mxCell id="GLHK2XZ-IV7IDvXL2LE--9" value="&lt;b&gt;BBB Entity&lt;/b&gt;" style="html=1;dropTarget=0;strokeColor=#000000;strokeWidth=1;fontSize=14;fontColor=#000000;fillColor=#FFFFFF;" vertex="1" parent="GLHK2XZ-IV7IDvXL2LE--2">
                    <mxGeometry x="430" y="60" width="160" height="60" as="geometry"/>
                </mxCell>
                <mxCell id="GLHK2XZ-IV7IDvXL2LE--10" value="" style="shape=module;jettyWidth=8;jettyHeight=4;strokeColor=#000000;strokeWidth=1;fontSize=14;fontColor=#000000;fillColor=#FFFFFF;" vertex="1" parent="GLHK2XZ-IV7IDvXL2LE--9">
                    <mxGeometry x="1" width="20" height="20" relative="1" as="geometry">
                        <mxPoint x="-27" y="7" as="offset"/>
                    </mxGeometry>
                </mxCell>
                <mxCell id="GLHK2XZ-IV7IDvXL2LE--11" style="edgeStyle=none;html=1;fontSize=12;fontColor=#000000;strokeWidth=1;startSize=6;endSize=10;endArrow=open;endFill=0;" edge="1" parent="GLHK2XZ-IV7IDvXL2LE--2" source="GLHK2XZ-IV7IDvXL2LE--9" target="GLHK2XZ-IV7IDvXL2LE--4">
                    <mxGeometry relative="1" as="geometry"/>
                </mxCell>
                <mxCell id="GLHK2XZ-IV7IDvXL2LE--12" value="&lt;b&gt;CCC Entity&lt;/b&gt;" style="html=1;dropTarget=0;strokeColor=#000000;strokeWidth=1;fontSize=14;fontColor=#000000;fillColor=#FFFFFF;" vertex="1" parent="GLHK2XZ-IV7IDvXL2LE--2">
                    <mxGeometry x="685" y="60" width="160" height="60" as="geometry"/>
                </mxCell>
                <mxCell id="GLHK2XZ-IV7IDvXL2LE--13" value="" style="shape=module;jettyWidth=8;jettyHeight=4;strokeColor=#000000;strokeWidth=1;fontSize=14;fontColor=#000000;fillColor=#FFFFFF;" vertex="1" parent="GLHK2XZ-IV7IDvXL2LE--12">
                    <mxGeometry x="1" width="20" height="20" relative="1" as="geometry">
                        <mxPoint x="-27" y="7" as="offset"/>
                    </mxGeometry>
                </mxCell>
                <mxCell id="GLHK2XZ-IV7IDvXL2LE--14" style="edgeStyle=none;html=1;fontSize=12;fontColor=#000000;strokeWidth=1;startSize=6;endSize=10;endArrow=open;endFill=0;" edge="1" parent="GLHK2XZ-IV7IDvXL2LE--2" source="GLHK2XZ-IV7IDvXL2LE--12" target="GLHK2XZ-IV7IDvXL2LE--4">
                    <mxGeometry relative="1" as="geometry"/>
                </mxCell>
                <mxCell id="GLHK2XZ-IV7IDvXL2LE--15" style="edgeStyle=none;html=1;fontSize=12;fontColor=#000000;strokeWidth=1;startSize=6;endSize=10;endArrow=open;endFill=0;" edge="1" parent="1" source="GLHK2XZ-IV7IDvXL2LE--16" target="GLHK2XZ-IV7IDvXL2LE--2">
                    <mxGeometry relative="1" as="geometry"/>
                </mxCell>
                <mxCell id="GLHK2XZ-IV7IDvXL2LE--16" value="Domain Service" style="shape=folder;fontStyle=1;tabWidth=190;tabHeight=30;tabPosition=left;html=1;boundedLbl=1;labelInHeader=1;container=1;collapsible=0;strokeColor=#d6b656;strokeWidth=1;fontSize=14;fillColor=#fff2cc;" vertex="1" parent="1">
                    <mxGeometry x="660" y="380" width="480" height="140" as="geometry"/>
                </mxCell>
                <mxCell id="GLHK2XZ-IV7IDvXL2LE--17" value="" style="html=1;strokeColor=none;resizeWidth=1;resizeHeight=1;fillColor=none;part=1;connectable=0;allowArrows=0;deletable=0;strokeWidth=1;fontSize=14;fontColor=#000000;" vertex="1" parent="GLHK2XZ-IV7IDvXL2LE--16">
                    <mxGeometry width="480" height="98" relative="1" as="geometry">
                        <mxPoint y="30" as="offset"/>
                    </mxGeometry>
                </mxCell>
                <mxCell id="GLHK2XZ-IV7IDvXL2LE--18" value="&lt;b&gt;Domain Service&lt;/b&gt;" style="html=1;dropTarget=0;strokeColor=#000000;strokeWidth=1;fontSize=14;fontColor=#000000;fillColor=#FFFFFF;" vertex="1" parent="GLHK2XZ-IV7IDvXL2LE--16">
                    <mxGeometry x="30" y="50" width="190" height="60" as="geometry"/>
                </mxCell>
                <mxCell id="GLHK2XZ-IV7IDvXL2LE--19" value="" style="shape=module;jettyWidth=8;jettyHeight=4;strokeColor=#000000;strokeWidth=1;fontSize=14;fontColor=#000000;fillColor=#FFFFFF;" vertex="1" parent="GLHK2XZ-IV7IDvXL2LE--18">
                    <mxGeometry x="1" width="20" height="20" relative="1" as="geometry">
                        <mxPoint x="-27" y="7" as="offset"/>
                    </mxGeometry>
                </mxCell>
                <mxCell id="GLHK2XZ-IV7IDvXL2LE--20" value="&lt;b&gt;Repository&lt;/b&gt;" style="html=1;dropTarget=0;strokeColor=#000000;strokeWidth=1;fontSize=14;fontColor=#000000;fillColor=#FFFFFF;" vertex="1" parent="GLHK2XZ-IV7IDvXL2LE--16">
                    <mxGeometry x="290" y="50" width="160" height="60" as="geometry"/>
                </mxCell>
                <mxCell id="GLHK2XZ-IV7IDvXL2LE--21" value="" style="shape=module;jettyWidth=8;jettyHeight=4;strokeColor=#000000;strokeWidth=1;fontSize=14;fontColor=#000000;fillColor=#FFFFFF;" vertex="1" parent="GLHK2XZ-IV7IDvXL2LE--20">
                    <mxGeometry x="1" width="20" height="20" relative="1" as="geometry">
                        <mxPoint x="-27" y="7" as="offset"/>
                    </mxGeometry>
                </mxCell>
                <mxCell id="GLHK2XZ-IV7IDvXL2LE--22" value="Application Service" style="shape=folder;fontStyle=1;tabWidth=190;tabHeight=30;tabPosition=left;html=1;boundedLbl=1;labelInHeader=1;container=1;collapsible=0;strokeColor=#000000;strokeWidth=1;fontSize=14;fontColor=#000000;fillColor=#FFFFFF;" vertex="1" parent="1">
                    <mxGeometry x="370" y="210" width="480" height="140" as="geometry"/>
                </mxCell>
                <mxCell id="GLHK2XZ-IV7IDvXL2LE--23" value="" style="html=1;strokeColor=none;resizeWidth=1;resizeHeight=1;fillColor=none;part=1;connectable=0;allowArrows=0;deletable=0;strokeWidth=1;fontSize=14;fontColor=#000000;" vertex="1" parent="GLHK2XZ-IV7IDvXL2LE--22">
                    <mxGeometry width="480" height="98" relative="1" as="geometry">
                        <mxPoint y="30" as="offset"/>
                    </mxGeometry>
                </mxCell>
                <mxCell id="GLHK2XZ-IV7IDvXL2LE--24" value="&lt;b&gt;Feature&lt;/b&gt;" style="html=1;dropTarget=0;strokeColor=#000000;strokeWidth=1;fontSize=14;fontColor=#000000;fillColor=#FFFFFF;" vertex="1" parent="GLHK2XZ-IV7IDvXL2LE--22">
                    <mxGeometry x="295" y="60" width="160" height="60" as="geometry"/>
                </mxCell>
                <mxCell id="GLHK2XZ-IV7IDvXL2LE--25" value="" style="shape=module;jettyWidth=8;jettyHeight=4;strokeColor=#000000;strokeWidth=1;fontSize=14;fontColor=#000000;fillColor=#FFFFFF;" vertex="1" parent="GLHK2XZ-IV7IDvXL2LE--24">
                    <mxGeometry x="1" width="20" height="20" relative="1" as="geometry">
                        <mxPoint x="-27" y="7" as="offset"/>
                    </mxGeometry>
                </mxCell>
                <mxCell id="GLHK2XZ-IV7IDvXL2LE--26" value="&lt;b&gt;Usecase&lt;/b&gt;" style="html=1;dropTarget=0;strokeColor=#000000;strokeWidth=1;fontSize=14;fontColor=#000000;fillColor=#FFFFFF;" vertex="1" parent="GLHK2XZ-IV7IDvXL2LE--22">
                    <mxGeometry x="50" y="60" width="160" height="60" as="geometry"/>
                </mxCell>
                <mxCell id="GLHK2XZ-IV7IDvXL2LE--27" value="" style="shape=module;jettyWidth=8;jettyHeight=4;strokeColor=#000000;strokeWidth=1;fontSize=14;fontColor=#000000;fillColor=#FFFFFF;" vertex="1" parent="GLHK2XZ-IV7IDvXL2LE--26">
                    <mxGeometry x="1" width="20" height="20" relative="1" as="geometry">
                        <mxPoint x="-27" y="7" as="offset"/>
                    </mxGeometry>
                </mxCell>
                <mxCell id="GLHK2XZ-IV7IDvXL2LE--28" style="edgeStyle=none;html=1;strokeWidth=1;fontSize=12;fontColor=#000000;endArrow=open;endFill=0;startSize=6;endSize=10;" edge="1" parent="GLHK2XZ-IV7IDvXL2LE--22" source="GLHK2XZ-IV7IDvXL2LE--26" target="GLHK2XZ-IV7IDvXL2LE--24">
                    <mxGeometry relative="1" as="geometry"/>
                </mxCell>
                <mxCell id="GLHK2XZ-IV7IDvXL2LE--39" value="Infrastructure" style="shape=folder;fontStyle=1;tabWidth=190;tabHeight=30;tabPosition=left;html=1;boundedLbl=1;labelInHeader=1;container=1;collapsible=0;strokeColor=#000000;strokeWidth=1;fontSize=14;fontColor=#000000;fillColor=#FFFFFF;" vertex="1" parent="1">
                    <mxGeometry x="700" y="30" width="480" height="140" as="geometry"/>
                </mxCell>
                <mxCell id="GLHK2XZ-IV7IDvXL2LE--40" value="" style="html=1;strokeColor=none;resizeWidth=1;resizeHeight=1;fillColor=none;part=1;connectable=0;allowArrows=0;deletable=0;strokeWidth=1;fontSize=14;fontColor=#000000;" vertex="1" parent="GLHK2XZ-IV7IDvXL2LE--39">
                    <mxGeometry width="480" height="98" relative="1" as="geometry">
                        <mxPoint y="30" as="offset"/>
                    </mxGeometry>
                </mxCell>
                <mxCell id="GLHK2XZ-IV7IDvXL2LE--41" value="&lt;b&gt;FileAccessor&lt;/b&gt;" style="html=1;dropTarget=0;strokeColor=#000000;strokeWidth=1;fontSize=14;fontColor=#000000;fillColor=#FFFFFF;" vertex="1" parent="GLHK2XZ-IV7IDvXL2LE--39">
                    <mxGeometry x="30" y="60" width="160" height="60" as="geometry"/>
                </mxCell>
                <mxCell id="GLHK2XZ-IV7IDvXL2LE--42" value="" style="shape=module;jettyWidth=8;jettyHeight=4;strokeColor=#000000;strokeWidth=1;fontSize=14;fontColor=#000000;fillColor=#FFFFFF;" vertex="1" parent="GLHK2XZ-IV7IDvXL2LE--41">
                    <mxGeometry x="1" width="20" height="20" relative="1" as="geometry">
                        <mxPoint x="-27" y="7" as="offset"/>
                    </mxGeometry>
                </mxCell>
                <mxCell id="GLHK2XZ-IV7IDvXL2LE--43" value="&lt;b&gt;In Memory Repository&lt;/b&gt;" style="html=1;dropTarget=0;strokeColor=#000000;strokeWidth=1;fontSize=14;fontColor=#000000;fillColor=#FFFFFF;" vertex="1" parent="GLHK2XZ-IV7IDvXL2LE--39">
                    <mxGeometry x="230" y="60" width="230" height="60" as="geometry"/>
                </mxCell>
                <mxCell id="GLHK2XZ-IV7IDvXL2LE--44" value="" style="shape=module;jettyWidth=8;jettyHeight=4;strokeColor=#000000;strokeWidth=1;fontSize=14;fontColor=#000000;fillColor=#FFFFFF;" vertex="1" parent="GLHK2XZ-IV7IDvXL2LE--43">
                    <mxGeometry x="1" width="20" height="20" relative="1" as="geometry">
                        <mxPoint x="-27" y="7" as="offset"/>
                    </mxGeometry>
                </mxCell>
                <mxCell id="GLHK2XZ-IV7IDvXL2LE--46" style="edgeStyle=none;html=1;fontSize=12;fontColor=#000000;strokeWidth=1;startSize=6;endSize=10;endArrow=open;endFill=0;" edge="1" parent="1" source="GLHK2XZ-IV7IDvXL2LE--22" target="GLHK2XZ-IV7IDvXL2LE--16">
                    <mxGeometry relative="1" as="geometry">
                        <Array as="points"/>
                    </mxGeometry>
                </mxCell>
                <mxCell id="GLHK2XZ-IV7IDvXL2LE--47" style="edgeStyle=none;html=1;fontSize=12;fontColor=#000000;strokeWidth=1;startSize=6;endSize=10;endArrow=open;endFill=0;" edge="1" parent="1" source="GLHK2XZ-IV7IDvXL2LE--22" target="GLHK2XZ-IV7IDvXL2LE--2">
                    <mxGeometry relative="1" as="geometry"/>
                </mxCell>
                <mxCell id="GLHK2XZ-IV7IDvXL2LE--48" style="edgeStyle=none;html=1;strokeWidth=1;fontSize=12;fontColor=#000000;endArrow=block;endFill=0;startSize=6;endSize=10;" edge="1" parent="1" source="GLHK2XZ-IV7IDvXL2LE--41" target="GLHK2XZ-IV7IDvXL2LE--24">
                    <mxGeometry relative="1" as="geometry"/>
                </mxCell>
                <mxCell id="GLHK2XZ-IV7IDvXL2LE--49" style="edgeStyle=none;html=1;strokeWidth=1;fontSize=12;fontColor=#000000;endArrow=block;endFill=0;startSize=6;endSize=10;" edge="1" parent="1" source="GLHK2XZ-IV7IDvXL2LE--43" target="GLHK2XZ-IV7IDvXL2LE--20">
                    <mxGeometry relative="1" as="geometry"/>
                </mxCell>
            </root>
        </mxGraphModel>
    </diagram>
    <diagram id="QlWX3j-_fMlE3hgLXlvy" name="Application Service層コンポーネント">
        <mxGraphModel dx="2601" dy="1654" grid="1" gridSize="10" guides="1" tooltips="1" connect="1" arrows="1" fold="1" page="1" pageScale="1" pageWidth="1169" pageHeight="827" math="0" shadow="0">
            <root>
                <mxCell id="0"/>
                <mxCell id="1" parent="0"/>
                <mxCell id="9SMkPMKGss1JYRTQnkdx-1" value="" style="rounded=0;whiteSpace=wrap;html=1;strokeColor=#000000;strokeWidth=1;fontSize=14;fontColor=#000000;fillColor=#FFFFFF;" vertex="1" parent="1">
                    <mxGeometry x="-10" y="-80" width="1220" height="870" as="geometry"/>
                </mxCell>
                <mxCell id="9SMkPMKGss1JYRTQnkdx-2" value="Domain Model" style="shape=folder;fontStyle=1;tabWidth=190;tabHeight=30;tabPosition=left;html=1;boundedLbl=1;labelInHeader=1;container=1;collapsible=0;strokeColor=#000000;strokeWidth=1;fontSize=14;fontColor=#000000;fillColor=#FFFFFF;" vertex="1" parent="1">
                    <mxGeometry x="95" y="550" width="990" height="220" as="geometry"/>
                </mxCell>
                <mxCell id="9SMkPMKGss1JYRTQnkdx-3" value="" style="html=1;strokeColor=none;resizeWidth=1;resizeHeight=1;fillColor=none;part=1;connectable=0;allowArrows=0;deletable=0;strokeWidth=1;fontSize=14;fontColor=#000000;" vertex="1" parent="9SMkPMKGss1JYRTQnkdx-2">
                    <mxGeometry width="990" height="154" relative="1" as="geometry">
                        <mxPoint y="30" as="offset"/>
                    </mxGeometry>
                </mxCell>
                <mxCell id="9SMkPMKGss1JYRTQnkdx-4" value="&lt;b&gt;Domain Model Common&lt;/b&gt;" style="html=1;dropTarget=0;strokeColor=#000000;strokeWidth=1;fontSize=14;fontColor=#000000;fillColor=#FFFFFF;" vertex="1" parent="9SMkPMKGss1JYRTQnkdx-2">
                    <mxGeometry x="380" y="150" width="260" height="60" as="geometry"/>
                </mxCell>
                <mxCell id="9SMkPMKGss1JYRTQnkdx-5" value="" style="shape=module;jettyWidth=8;jettyHeight=4;strokeColor=#000000;strokeWidth=1;fontSize=14;fontColor=#000000;fillColor=#FFFFFF;" vertex="1" parent="9SMkPMKGss1JYRTQnkdx-4">
                    <mxGeometry x="1" width="20" height="20" relative="1" as="geometry">
                        <mxPoint x="-27" y="7" as="offset"/>
                    </mxGeometry>
                </mxCell>
                <mxCell id="9SMkPMKGss1JYRTQnkdx-6" value="&lt;b&gt;AAA Entity&lt;/b&gt;" style="html=1;dropTarget=0;strokeColor=#000000;strokeWidth=1;fontSize=14;fontColor=#000000;fillColor=#FFFFFF;" vertex="1" parent="9SMkPMKGss1JYRTQnkdx-2">
                    <mxGeometry x="180" y="60" width="160" height="60" as="geometry"/>
                </mxCell>
                <mxCell id="9SMkPMKGss1JYRTQnkdx-7" value="" style="shape=module;jettyWidth=8;jettyHeight=4;strokeColor=#000000;strokeWidth=1;fontSize=14;fontColor=#000000;fillColor=#FFFFFF;" vertex="1" parent="9SMkPMKGss1JYRTQnkdx-6">
                    <mxGeometry x="1" width="20" height="20" relative="1" as="geometry">
                        <mxPoint x="-27" y="7" as="offset"/>
                    </mxGeometry>
                </mxCell>
                <mxCell id="9SMkPMKGss1JYRTQnkdx-8" style="edgeStyle=none;html=1;fontSize=12;fontColor=#000000;strokeWidth=1;startSize=6;endSize=10;endArrow=open;endFill=0;" edge="1" parent="9SMkPMKGss1JYRTQnkdx-2" source="9SMkPMKGss1JYRTQnkdx-6" target="9SMkPMKGss1JYRTQnkdx-4">
                    <mxGeometry relative="1" as="geometry"/>
                </mxCell>
                <mxCell id="9SMkPMKGss1JYRTQnkdx-9" value="&lt;b&gt;BBB Entity&lt;/b&gt;" style="html=1;dropTarget=0;strokeColor=#000000;strokeWidth=1;fontSize=14;fontColor=#000000;fillColor=#FFFFFF;" vertex="1" parent="9SMkPMKGss1JYRTQnkdx-2">
                    <mxGeometry x="430" y="60" width="160" height="60" as="geometry"/>
                </mxCell>
                <mxCell id="9SMkPMKGss1JYRTQnkdx-10" value="" style="shape=module;jettyWidth=8;jettyHeight=4;strokeColor=#000000;strokeWidth=1;fontSize=14;fontColor=#000000;fillColor=#FFFFFF;" vertex="1" parent="9SMkPMKGss1JYRTQnkdx-9">
                    <mxGeometry x="1" width="20" height="20" relative="1" as="geometry">
                        <mxPoint x="-27" y="7" as="offset"/>
                    </mxGeometry>
                </mxCell>
                <mxCell id="9SMkPMKGss1JYRTQnkdx-11" style="edgeStyle=none;html=1;fontSize=12;fontColor=#000000;strokeWidth=1;startSize=6;endSize=10;endArrow=open;endFill=0;" edge="1" parent="9SMkPMKGss1JYRTQnkdx-2" source="9SMkPMKGss1JYRTQnkdx-9" target="9SMkPMKGss1JYRTQnkdx-4">
                    <mxGeometry relative="1" as="geometry"/>
                </mxCell>
                <mxCell id="9SMkPMKGss1JYRTQnkdx-12" value="&lt;b&gt;CCC Entity&lt;/b&gt;" style="html=1;dropTarget=0;strokeColor=#000000;strokeWidth=1;fontSize=14;fontColor=#000000;fillColor=#FFFFFF;" vertex="1" parent="9SMkPMKGss1JYRTQnkdx-2">
                    <mxGeometry x="685" y="60" width="160" height="60" as="geometry"/>
                </mxCell>
                <mxCell id="9SMkPMKGss1JYRTQnkdx-13" value="" style="shape=module;jettyWidth=8;jettyHeight=4;strokeColor=#000000;strokeWidth=1;fontSize=14;fontColor=#000000;fillColor=#FFFFFF;" vertex="1" parent="9SMkPMKGss1JYRTQnkdx-12">
                    <mxGeometry x="1" width="20" height="20" relative="1" as="geometry">
                        <mxPoint x="-27" y="7" as="offset"/>
                    </mxGeometry>
                </mxCell>
                <mxCell id="9SMkPMKGss1JYRTQnkdx-14" style="edgeStyle=none;html=1;fontSize=12;fontColor=#000000;strokeWidth=1;startSize=6;endSize=10;endArrow=open;endFill=0;" edge="1" parent="9SMkPMKGss1JYRTQnkdx-2" source="9SMkPMKGss1JYRTQnkdx-12" target="9SMkPMKGss1JYRTQnkdx-4">
                    <mxGeometry relative="1" as="geometry"/>
                </mxCell>
                <mxCell id="9SMkPMKGss1JYRTQnkdx-15" style="edgeStyle=none;html=1;fontSize=12;fontColor=#000000;strokeWidth=1;startSize=6;endSize=10;endArrow=open;endFill=0;" edge="1" parent="1" source="9SMkPMKGss1JYRTQnkdx-16" target="9SMkPMKGss1JYRTQnkdx-2">
                    <mxGeometry relative="1" as="geometry"/>
                </mxCell>
                <mxCell id="9SMkPMKGss1JYRTQnkdx-16" value="Domain Service" style="shape=folder;fontStyle=1;tabWidth=190;tabHeight=30;tabPosition=left;html=1;boundedLbl=1;labelInHeader=1;container=1;collapsible=0;strokeColor=#000000;strokeWidth=1;fontSize=14;fontColor=#000000;fillColor=#FFFFFF;" vertex="1" parent="1">
                    <mxGeometry x="660" y="380" width="480" height="140" as="geometry"/>
                </mxCell>
                <mxCell id="9SMkPMKGss1JYRTQnkdx-17" value="" style="html=1;strokeColor=none;resizeWidth=1;resizeHeight=1;fillColor=none;part=1;connectable=0;allowArrows=0;deletable=0;strokeWidth=1;fontSize=14;fontColor=#000000;" vertex="1" parent="9SMkPMKGss1JYRTQnkdx-16">
                    <mxGeometry width="480" height="98" relative="1" as="geometry">
                        <mxPoint y="30" as="offset"/>
                    </mxGeometry>
                </mxCell>
                <mxCell id="9SMkPMKGss1JYRTQnkdx-18" value="&lt;b&gt;Domain Service&lt;/b&gt;" style="html=1;dropTarget=0;strokeColor=#000000;strokeWidth=1;fontSize=14;fontColor=#000000;fillColor=#FFFFFF;" vertex="1" parent="9SMkPMKGss1JYRTQnkdx-16">
                    <mxGeometry x="30" y="50" width="190" height="60" as="geometry"/>
                </mxCell>
                <mxCell id="9SMkPMKGss1JYRTQnkdx-19" value="" style="shape=module;jettyWidth=8;jettyHeight=4;strokeColor=#000000;strokeWidth=1;fontSize=14;fontColor=#000000;fillColor=#FFFFFF;" vertex="1" parent="9SMkPMKGss1JYRTQnkdx-18">
                    <mxGeometry x="1" width="20" height="20" relative="1" as="geometry">
                        <mxPoint x="-27" y="7" as="offset"/>
                    </mxGeometry>
                </mxCell>
                <mxCell id="9SMkPMKGss1JYRTQnkdx-20" value="&lt;b&gt;Repository&lt;/b&gt;" style="html=1;dropTarget=0;strokeColor=#000000;strokeWidth=1;fontSize=14;fontColor=#000000;fillColor=#FFFFFF;" vertex="1" parent="9SMkPMKGss1JYRTQnkdx-16">
                    <mxGeometry x="290" y="50" width="160" height="60" as="geometry"/>
                </mxCell>
                <mxCell id="9SMkPMKGss1JYRTQnkdx-21" value="" style="shape=module;jettyWidth=8;jettyHeight=4;strokeColor=#000000;strokeWidth=1;fontSize=14;fontColor=#000000;fillColor=#FFFFFF;" vertex="1" parent="9SMkPMKGss1JYRTQnkdx-20">
                    <mxGeometry x="1" width="20" height="20" relative="1" as="geometry">
                        <mxPoint x="-27" y="7" as="offset"/>
                    </mxGeometry>
                </mxCell>
                <mxCell id="9SMkPMKGss1JYRTQnkdx-22" value="Application Service" style="shape=folder;fontStyle=1;tabWidth=190;tabHeight=30;tabPosition=left;html=1;boundedLbl=1;labelInHeader=1;container=1;collapsible=0;strokeColor=#d6b656;strokeWidth=1;fontSize=14;fillColor=#fff2cc;" vertex="1" parent="1">
                    <mxGeometry x="370" y="210" width="480" height="140" as="geometry"/>
                </mxCell>
                <mxCell id="9SMkPMKGss1JYRTQnkdx-23" value="" style="html=1;strokeColor=none;resizeWidth=1;resizeHeight=1;fillColor=none;part=1;connectable=0;allowArrows=0;deletable=0;strokeWidth=1;fontSize=14;fontColor=#000000;" vertex="1" parent="9SMkPMKGss1JYRTQnkdx-22">
                    <mxGeometry width="480" height="98" relative="1" as="geometry">
                        <mxPoint y="30" as="offset"/>
                    </mxGeometry>
                </mxCell>
                <mxCell id="9SMkPMKGss1JYRTQnkdx-24" value="&lt;b&gt;Feature&lt;/b&gt;" style="html=1;dropTarget=0;strokeColor=#000000;strokeWidth=1;fontSize=14;fontColor=#000000;fillColor=#FFFFFF;" vertex="1" parent="9SMkPMKGss1JYRTQnkdx-22">
                    <mxGeometry x="295" y="60" width="160" height="60" as="geometry"/>
                </mxCell>
                <mxCell id="9SMkPMKGss1JYRTQnkdx-25" value="" style="shape=module;jettyWidth=8;jettyHeight=4;strokeColor=#000000;strokeWidth=1;fontSize=14;fontColor=#000000;fillColor=#FFFFFF;" vertex="1" parent="9SMkPMKGss1JYRTQnkdx-24">
                    <mxGeometry x="1" width="20" height="20" relative="1" as="geometry">
                        <mxPoint x="-27" y="7" as="offset"/>
                    </mxGeometry>
                </mxCell>
                <mxCell id="9SMkPMKGss1JYRTQnkdx-26" value="&lt;b&gt;Usecase&lt;/b&gt;" style="html=1;dropTarget=0;strokeColor=#000000;strokeWidth=1;fontSize=14;fontColor=#000000;fillColor=#FFFFFF;" vertex="1" parent="9SMkPMKGss1JYRTQnkdx-22">
                    <mxGeometry x="50" y="60" width="160" height="60" as="geometry"/>
                </mxCell>
                <mxCell id="9SMkPMKGss1JYRTQnkdx-27" value="" style="shape=module;jettyWidth=8;jettyHeight=4;strokeColor=#000000;strokeWidth=1;fontSize=14;fontColor=#000000;fillColor=#FFFFFF;" vertex="1" parent="9SMkPMKGss1JYRTQnkdx-26">
                    <mxGeometry x="1" width="20" height="20" relative="1" as="geometry">
                        <mxPoint x="-27" y="7" as="offset"/>
                    </mxGeometry>
                </mxCell>
                <mxCell id="9SMkPMKGss1JYRTQnkdx-28" style="edgeStyle=none;html=1;strokeWidth=1;fontSize=12;fontColor=#000000;endArrow=open;endFill=0;startSize=6;endSize=10;" edge="1" parent="9SMkPMKGss1JYRTQnkdx-22" source="9SMkPMKGss1JYRTQnkdx-26" target="9SMkPMKGss1JYRTQnkdx-24">
                    <mxGeometry relative="1" as="geometry"/>
                </mxCell>
                <mxCell id="9SMkPMKGss1JYRTQnkdx-29" value="User Interface" style="shape=folder;fontStyle=1;tabWidth=190;tabHeight=30;tabPosition=left;html=1;boundedLbl=1;labelInHeader=1;container=1;collapsible=0;strokeColor=#000000;strokeWidth=1;fontSize=14;fontColor=#000000;fillColor=#FFFFFF;" vertex="1" parent="1">
                    <mxGeometry x="20" y="-60" width="490" height="240" as="geometry"/>
                </mxCell>
                <mxCell id="9SMkPMKGss1JYRTQnkdx-30" value="" style="html=1;strokeColor=none;resizeWidth=1;resizeHeight=1;fillColor=none;part=1;connectable=0;allowArrows=0;deletable=0;strokeWidth=1;fontSize=14;fontColor=#000000;" vertex="1" parent="9SMkPMKGss1JYRTQnkdx-29">
                    <mxGeometry width="490" height="168" relative="1" as="geometry">
                        <mxPoint y="30" as="offset"/>
                    </mxGeometry>
                </mxCell>
                <mxCell id="9SMkPMKGss1JYRTQnkdx-31" value="&lt;b&gt;UI Parts&lt;/b&gt;" style="html=1;dropTarget=0;strokeColor=#000000;strokeWidth=1;fontSize=14;fontColor=#000000;fillColor=#FFFFFF;" vertex="1" parent="9SMkPMKGss1JYRTQnkdx-29">
                    <mxGeometry x="75" y="150" width="160" height="60" as="geometry"/>
                </mxCell>
                <mxCell id="9SMkPMKGss1JYRTQnkdx-32" value="" style="shape=module;jettyWidth=8;jettyHeight=4;strokeColor=#000000;strokeWidth=1;fontSize=14;fontColor=#000000;fillColor=#FFFFFF;" vertex="1" parent="9SMkPMKGss1JYRTQnkdx-31">
                    <mxGeometry x="1" width="20" height="20" relative="1" as="geometry">
                        <mxPoint x="-27" y="7" as="offset"/>
                    </mxGeometry>
                </mxCell>
                <mxCell id="9SMkPMKGss1JYRTQnkdx-33" value="&lt;b&gt;WPF Libary&lt;br&gt;&lt;/b&gt;" style="html=1;dropTarget=0;strokeColor=#000000;strokeWidth=1;fontSize=14;fontColor=#000000;fillColor=#FFFFFF;" vertex="1" parent="9SMkPMKGss1JYRTQnkdx-29">
                    <mxGeometry x="300" y="150" width="160" height="60" as="geometry"/>
                </mxCell>
                <mxCell id="9SMkPMKGss1JYRTQnkdx-34" value="" style="shape=module;jettyWidth=8;jettyHeight=4;strokeColor=#000000;strokeWidth=1;fontSize=14;fontColor=#000000;fillColor=#FFFFFF;" vertex="1" parent="9SMkPMKGss1JYRTQnkdx-33">
                    <mxGeometry x="1" width="20" height="20" relative="1" as="geometry">
                        <mxPoint x="-27" y="7" as="offset"/>
                    </mxGeometry>
                </mxCell>
                <mxCell id="9SMkPMKGss1JYRTQnkdx-35" style="edgeStyle=none;html=1;strokeWidth=1;fontSize=12;fontColor=#000000;endArrow=open;endFill=0;startSize=6;endSize=10;" edge="1" parent="9SMkPMKGss1JYRTQnkdx-29" source="9SMkPMKGss1JYRTQnkdx-31" target="9SMkPMKGss1JYRTQnkdx-33">
                    <mxGeometry relative="1" as="geometry"/>
                </mxCell>
                <mxCell id="9SMkPMKGss1JYRTQnkdx-36" value="&lt;font style=&quot;font-size: 12px;&quot;&gt;&amp;lt;&amp;lt;スタートプロジェクト&amp;gt;&amp;gt;&lt;/font&gt;&lt;br&gt;&lt;b&gt;WPF App1&lt;/b&gt;" style="html=1;dropTarget=0;strokeColor=#000000;strokeWidth=1;fontSize=14;fontColor=#000000;fillColor=#FFFFFF;" vertex="1" parent="9SMkPMKGss1JYRTQnkdx-29">
                    <mxGeometry x="30" y="50" width="240" height="60" as="geometry"/>
                </mxCell>
                <mxCell id="9SMkPMKGss1JYRTQnkdx-37" value="" style="shape=module;jettyWidth=8;jettyHeight=4;strokeColor=#000000;strokeWidth=1;fontSize=14;fontColor=#000000;fillColor=#FFFFFF;" vertex="1" parent="9SMkPMKGss1JYRTQnkdx-36">
                    <mxGeometry x="1" width="20" height="20" relative="1" as="geometry">
                        <mxPoint x="-27" y="7" as="offset"/>
                    </mxGeometry>
                </mxCell>
                <mxCell id="9SMkPMKGss1JYRTQnkdx-38" style="edgeStyle=none;html=1;strokeWidth=1;fontSize=12;fontColor=#000000;endArrow=open;endFill=0;startSize=6;endSize=10;" edge="1" parent="9SMkPMKGss1JYRTQnkdx-29" source="9SMkPMKGss1JYRTQnkdx-36" target="9SMkPMKGss1JYRTQnkdx-31">
                    <mxGeometry relative="1" as="geometry"/>
                </mxCell>
                <mxCell id="9SMkPMKGss1JYRTQnkdx-39" value="Infrastructure" style="shape=folder;fontStyle=1;tabWidth=190;tabHeight=30;tabPosition=left;html=1;boundedLbl=1;labelInHeader=1;container=1;collapsible=0;strokeColor=#000000;strokeWidth=1;fontSize=14;fontColor=#000000;fillColor=#FFFFFF;" vertex="1" parent="1">
                    <mxGeometry x="700" y="30" width="480" height="140" as="geometry"/>
                </mxCell>
                <mxCell id="9SMkPMKGss1JYRTQnkdx-40" value="" style="html=1;strokeColor=none;resizeWidth=1;resizeHeight=1;fillColor=none;part=1;connectable=0;allowArrows=0;deletable=0;strokeWidth=1;fontSize=14;fontColor=#000000;" vertex="1" parent="9SMkPMKGss1JYRTQnkdx-39">
                    <mxGeometry width="480" height="98" relative="1" as="geometry">
                        <mxPoint y="30" as="offset"/>
                    </mxGeometry>
                </mxCell>
                <mxCell id="9SMkPMKGss1JYRTQnkdx-41" value="&lt;b&gt;FileAccessor&lt;/b&gt;" style="html=1;dropTarget=0;strokeColor=#000000;strokeWidth=1;fontSize=14;fontColor=#000000;fillColor=#FFFFFF;" vertex="1" parent="9SMkPMKGss1JYRTQnkdx-39">
                    <mxGeometry x="30" y="60" width="160" height="60" as="geometry"/>
                </mxCell>
                <mxCell id="9SMkPMKGss1JYRTQnkdx-42" value="" style="shape=module;jettyWidth=8;jettyHeight=4;strokeColor=#000000;strokeWidth=1;fontSize=14;fontColor=#000000;fillColor=#FFFFFF;" vertex="1" parent="9SMkPMKGss1JYRTQnkdx-41">
                    <mxGeometry x="1" width="20" height="20" relative="1" as="geometry">
                        <mxPoint x="-27" y="7" as="offset"/>
                    </mxGeometry>
                </mxCell>
                <mxCell id="9SMkPMKGss1JYRTQnkdx-43" value="&lt;b&gt;In Memory Repository&lt;/b&gt;" style="html=1;dropTarget=0;strokeColor=#000000;strokeWidth=1;fontSize=14;fontColor=#000000;fillColor=#FFFFFF;" vertex="1" parent="9SMkPMKGss1JYRTQnkdx-39">
                    <mxGeometry x="230" y="60" width="230" height="60" as="geometry"/>
                </mxCell>
                <mxCell id="9SMkPMKGss1JYRTQnkdx-44" value="" style="shape=module;jettyWidth=8;jettyHeight=4;strokeColor=#000000;strokeWidth=1;fontSize=14;fontColor=#000000;fillColor=#FFFFFF;" vertex="1" parent="9SMkPMKGss1JYRTQnkdx-43">
                    <mxGeometry x="1" width="20" height="20" relative="1" as="geometry">
                        <mxPoint x="-27" y="7" as="offset"/>
                    </mxGeometry>
                </mxCell>
                <mxCell id="9SMkPMKGss1JYRTQnkdx-45" style="edgeStyle=none;html=1;strokeWidth=1;fontSize=12;fontColor=#000000;endArrow=open;endFill=0;startSize=6;endSize=10;" edge="1" parent="1" source="9SMkPMKGss1JYRTQnkdx-31" target="9SMkPMKGss1JYRTQnkdx-26">
                    <mxGeometry relative="1" as="geometry"/>
                </mxCell>
                <mxCell id="9SMkPMKGss1JYRTQnkdx-46" style="edgeStyle=none;html=1;fontSize=12;fontColor=#000000;strokeWidth=1;startSize=6;endSize=10;endArrow=open;endFill=0;" edge="1" parent="1" source="9SMkPMKGss1JYRTQnkdx-22" target="9SMkPMKGss1JYRTQnkdx-16">
                    <mxGeometry relative="1" as="geometry">
                        <Array as="points"/>
                    </mxGeometry>
                </mxCell>
                <mxCell id="9SMkPMKGss1JYRTQnkdx-47" style="edgeStyle=none;html=1;fontSize=12;fontColor=#000000;strokeWidth=1;startSize=6;endSize=10;endArrow=open;endFill=0;" edge="1" parent="1" source="9SMkPMKGss1JYRTQnkdx-22" target="9SMkPMKGss1JYRTQnkdx-2">
                    <mxGeometry relative="1" as="geometry"/>
                </mxCell>
                <mxCell id="9SMkPMKGss1JYRTQnkdx-48" style="edgeStyle=none;html=1;strokeWidth=1;fontSize=12;fontColor=#000000;endArrow=block;endFill=0;startSize=6;endSize=10;" edge="1" parent="1" source="9SMkPMKGss1JYRTQnkdx-41" target="9SMkPMKGss1JYRTQnkdx-24">
                    <mxGeometry relative="1" as="geometry"/>
                </mxCell>
                <mxCell id="9SMkPMKGss1JYRTQnkdx-49" style="edgeStyle=none;html=1;strokeWidth=1;fontSize=12;fontColor=#000000;endArrow=block;endFill=0;startSize=6;endSize=10;" edge="1" parent="1" source="9SMkPMKGss1JYRTQnkdx-43" target="9SMkPMKGss1JYRTQnkdx-20">
                    <mxGeometry relative="1" as="geometry"/>
                </mxCell>
                <mxCell id="9SMkPMKGss1JYRTQnkdx-50" style="edgeStyle=none;html=1;strokeWidth=1;fontSize=12;fontColor=#000000;endArrow=open;endFill=0;startSize=6;endSize=10;" edge="1" parent="1" source="9SMkPMKGss1JYRTQnkdx-31" target="9SMkPMKGss1JYRTQnkdx-2">
                    <mxGeometry relative="1" as="geometry">
                        <Array as="points">
                            <mxPoint x="220" y="410"/>
                        </Array>
                    </mxGeometry>
                </mxCell>
                <mxCell id="ULu4Gp8lA01RwibDbHQd-1" style="edgeStyle=none;html=1;strokeWidth=1;fontSize=12;fontColor=#000000;endArrow=open;endFill=0;startSize=6;endSize=10;" edge="1" parent="1" source="9SMkPMKGss1JYRTQnkdx-31" target="9SMkPMKGss1JYRTQnkdx-18">
                    <mxGeometry relative="1" as="geometry">
                        <Array as="points">
                            <mxPoint x="320" y="390"/>
                        </Array>
                    </mxGeometry>
                </mxCell>
            </root>
        </mxGraphModel>
    </diagram>
    <diagram id="_TtW_Wer3DW47_IJ8-jA" name="Infrastructure層コンポーネント">
        <mxGraphModel dx="1432" dy="827" grid="1" gridSize="10" guides="1" tooltips="1" connect="1" arrows="1" fold="1" page="1" pageScale="1" pageWidth="1169" pageHeight="827" math="0" shadow="0">
            <root>
                <mxCell id="0"/>
                <mxCell id="1" parent="0"/>
                <mxCell id="UfjRC81HsQA73amZqHm6-1" value="" style="rounded=0;whiteSpace=wrap;html=1;strokeColor=#000000;strokeWidth=1;fontSize=14;fontColor=#000000;fillColor=#FFFFFF;" vertex="1" parent="1">
                    <mxGeometry x="330" y="10" width="880" height="540" as="geometry"/>
                </mxCell>
                <mxCell id="UfjRC81HsQA73amZqHm6-16" value="Domain Service" style="shape=folder;fontStyle=1;tabWidth=190;tabHeight=30;tabPosition=left;html=1;boundedLbl=1;labelInHeader=1;container=1;collapsible=0;strokeColor=#000000;strokeWidth=1;fontSize=14;fontColor=#000000;fillColor=#FFFFFF;" vertex="1" parent="1">
                    <mxGeometry x="660" y="380" width="480" height="140" as="geometry"/>
                </mxCell>
                <mxCell id="UfjRC81HsQA73amZqHm6-17" value="" style="html=1;strokeColor=none;resizeWidth=1;resizeHeight=1;fillColor=none;part=1;connectable=0;allowArrows=0;deletable=0;strokeWidth=1;fontSize=14;fontColor=#000000;" vertex="1" parent="UfjRC81HsQA73amZqHm6-16">
                    <mxGeometry width="480" height="98" relative="1" as="geometry">
                        <mxPoint y="30" as="offset"/>
                    </mxGeometry>
                </mxCell>
                <mxCell id="UfjRC81HsQA73amZqHm6-18" value="&lt;b&gt;Domain Service&lt;/b&gt;" style="html=1;dropTarget=0;strokeColor=#000000;strokeWidth=1;fontSize=14;fontColor=#000000;fillColor=#FFFFFF;" vertex="1" parent="UfjRC81HsQA73amZqHm6-16">
                    <mxGeometry x="30" y="50" width="190" height="60" as="geometry"/>
                </mxCell>
                <mxCell id="UfjRC81HsQA73amZqHm6-19" value="" style="shape=module;jettyWidth=8;jettyHeight=4;strokeColor=#000000;strokeWidth=1;fontSize=14;fontColor=#000000;fillColor=#FFFFFF;" vertex="1" parent="UfjRC81HsQA73amZqHm6-18">
                    <mxGeometry x="1" width="20" height="20" relative="1" as="geometry">
                        <mxPoint x="-27" y="7" as="offset"/>
                    </mxGeometry>
                </mxCell>
                <mxCell id="UfjRC81HsQA73amZqHm6-20" value="&lt;b&gt;Repository&lt;/b&gt;" style="html=1;dropTarget=0;strokeColor=#000000;strokeWidth=1;fontSize=14;fontColor=#000000;fillColor=#FFFFFF;" vertex="1" parent="UfjRC81HsQA73amZqHm6-16">
                    <mxGeometry x="290" y="50" width="160" height="60" as="geometry"/>
                </mxCell>
                <mxCell id="UfjRC81HsQA73amZqHm6-21" value="" style="shape=module;jettyWidth=8;jettyHeight=4;strokeColor=#000000;strokeWidth=1;fontSize=14;fontColor=#000000;fillColor=#FFFFFF;" vertex="1" parent="UfjRC81HsQA73amZqHm6-20">
                    <mxGeometry x="1" width="20" height="20" relative="1" as="geometry">
                        <mxPoint x="-27" y="7" as="offset"/>
                    </mxGeometry>
                </mxCell>
                <mxCell id="UfjRC81HsQA73amZqHm6-22" value="Application Service" style="shape=folder;fontStyle=1;tabWidth=190;tabHeight=30;tabPosition=left;html=1;boundedLbl=1;labelInHeader=1;container=1;collapsible=0;strokeColor=#000000;strokeWidth=1;fontSize=14;fontColor=#000000;fillColor=#FFFFFF;" vertex="1" parent="1">
                    <mxGeometry x="370" y="210" width="480" height="140" as="geometry"/>
                </mxCell>
                <mxCell id="UfjRC81HsQA73amZqHm6-23" value="" style="html=1;strokeColor=none;resizeWidth=1;resizeHeight=1;fillColor=none;part=1;connectable=0;allowArrows=0;deletable=0;strokeWidth=1;fontSize=14;fontColor=#000000;" vertex="1" parent="UfjRC81HsQA73amZqHm6-22">
                    <mxGeometry width="480" height="98" relative="1" as="geometry">
                        <mxPoint y="30" as="offset"/>
                    </mxGeometry>
                </mxCell>
                <mxCell id="UfjRC81HsQA73amZqHm6-24" value="&lt;b&gt;Feature&lt;/b&gt;" style="html=1;dropTarget=0;strokeColor=#000000;strokeWidth=1;fontSize=14;fontColor=#000000;fillColor=#FFFFFF;" vertex="1" parent="UfjRC81HsQA73amZqHm6-22">
                    <mxGeometry x="295" y="60" width="160" height="60" as="geometry"/>
                </mxCell>
                <mxCell id="UfjRC81HsQA73amZqHm6-25" value="" style="shape=module;jettyWidth=8;jettyHeight=4;strokeColor=#000000;strokeWidth=1;fontSize=14;fontColor=#000000;fillColor=#FFFFFF;" vertex="1" parent="UfjRC81HsQA73amZqHm6-24">
                    <mxGeometry x="1" width="20" height="20" relative="1" as="geometry">
                        <mxPoint x="-27" y="7" as="offset"/>
                    </mxGeometry>
                </mxCell>
                <mxCell id="UfjRC81HsQA73amZqHm6-26" value="&lt;b&gt;Usecase&lt;/b&gt;" style="html=1;dropTarget=0;strokeColor=#000000;strokeWidth=1;fontSize=14;fontColor=#000000;fillColor=#FFFFFF;" vertex="1" parent="UfjRC81HsQA73amZqHm6-22">
                    <mxGeometry x="50" y="60" width="160" height="60" as="geometry"/>
                </mxCell>
                <mxCell id="UfjRC81HsQA73amZqHm6-27" value="" style="shape=module;jettyWidth=8;jettyHeight=4;strokeColor=#000000;strokeWidth=1;fontSize=14;fontColor=#000000;fillColor=#FFFFFF;" vertex="1" parent="UfjRC81HsQA73amZqHm6-26">
                    <mxGeometry x="1" width="20" height="20" relative="1" as="geometry">
                        <mxPoint x="-27" y="7" as="offset"/>
                    </mxGeometry>
                </mxCell>
                <mxCell id="UfjRC81HsQA73amZqHm6-28" style="edgeStyle=none;html=1;strokeWidth=1;fontSize=12;fontColor=#000000;endArrow=open;endFill=0;startSize=6;endSize=10;" edge="1" parent="UfjRC81HsQA73amZqHm6-22" source="UfjRC81HsQA73amZqHm6-26" target="UfjRC81HsQA73amZqHm6-24">
                    <mxGeometry relative="1" as="geometry"/>
                </mxCell>
                <mxCell id="UfjRC81HsQA73amZqHm6-39" value="Infrastructure" style="shape=folder;fontStyle=1;tabWidth=190;tabHeight=30;tabPosition=left;html=1;boundedLbl=1;labelInHeader=1;container=1;collapsible=0;strokeColor=#d6b656;strokeWidth=1;fontSize=14;fillColor=#fff2cc;" vertex="1" parent="1">
                    <mxGeometry x="700" y="30" width="480" height="140" as="geometry"/>
                </mxCell>
                <mxCell id="UfjRC81HsQA73amZqHm6-40" value="" style="html=1;strokeColor=none;resizeWidth=1;resizeHeight=1;fillColor=none;part=1;connectable=0;allowArrows=0;deletable=0;strokeWidth=1;fontSize=14;fontColor=#000000;" vertex="1" parent="UfjRC81HsQA73amZqHm6-39">
                    <mxGeometry width="480" height="98" relative="1" as="geometry">
                        <mxPoint y="30" as="offset"/>
                    </mxGeometry>
                </mxCell>
                <mxCell id="UfjRC81HsQA73amZqHm6-41" value="&lt;b&gt;FileAccessor&lt;/b&gt;" style="html=1;dropTarget=0;strokeColor=#000000;strokeWidth=1;fontSize=14;fontColor=#000000;fillColor=#FFFFFF;" vertex="1" parent="UfjRC81HsQA73amZqHm6-39">
                    <mxGeometry x="30" y="60" width="160" height="60" as="geometry"/>
                </mxCell>
                <mxCell id="UfjRC81HsQA73amZqHm6-42" value="" style="shape=module;jettyWidth=8;jettyHeight=4;strokeColor=#000000;strokeWidth=1;fontSize=14;fontColor=#000000;fillColor=#FFFFFF;" vertex="1" parent="UfjRC81HsQA73amZqHm6-41">
                    <mxGeometry x="1" width="20" height="20" relative="1" as="geometry">
                        <mxPoint x="-27" y="7" as="offset"/>
                    </mxGeometry>
                </mxCell>
                <mxCell id="UfjRC81HsQA73amZqHm6-43" value="&lt;b&gt;In Memory Repository&lt;/b&gt;" style="html=1;dropTarget=0;strokeColor=#000000;strokeWidth=1;fontSize=14;fontColor=#000000;fillColor=#FFFFFF;" vertex="1" parent="UfjRC81HsQA73amZqHm6-39">
                    <mxGeometry x="230" y="60" width="230" height="60" as="geometry"/>
                </mxCell>
                <mxCell id="UfjRC81HsQA73amZqHm6-44" value="" style="shape=module;jettyWidth=8;jettyHeight=4;strokeColor=#000000;strokeWidth=1;fontSize=14;fontColor=#000000;fillColor=#FFFFFF;" vertex="1" parent="UfjRC81HsQA73amZqHm6-43">
                    <mxGeometry x="1" width="20" height="20" relative="1" as="geometry">
                        <mxPoint x="-27" y="7" as="offset"/>
                    </mxGeometry>
                </mxCell>
                <mxCell id="UfjRC81HsQA73amZqHm6-46" style="edgeStyle=none;html=1;fontSize=12;fontColor=#000000;strokeWidth=1;startSize=6;endSize=10;endArrow=open;endFill=0;" edge="1" parent="1" source="UfjRC81HsQA73amZqHm6-22" target="UfjRC81HsQA73amZqHm6-16">
                    <mxGeometry relative="1" as="geometry">
                        <Array as="points"/>
                    </mxGeometry>
                </mxCell>
                <mxCell id="UfjRC81HsQA73amZqHm6-48" style="edgeStyle=none;html=1;strokeWidth=1;fontSize=12;fontColor=#000000;endArrow=block;endFill=0;startSize=6;endSize=10;" edge="1" parent="1" source="UfjRC81HsQA73amZqHm6-41" target="UfjRC81HsQA73amZqHm6-24">
                    <mxGeometry relative="1" as="geometry"/>
                </mxCell>
                <mxCell id="UfjRC81HsQA73amZqHm6-49" style="edgeStyle=none;html=1;strokeWidth=1;fontSize=12;fontColor=#000000;endArrow=block;endFill=0;startSize=6;endSize=10;" edge="1" parent="1" source="UfjRC81HsQA73amZqHm6-43" target="UfjRC81HsQA73amZqHm6-20">
                    <mxGeometry relative="1" as="geometry"/>
                </mxCell>
            </root>
        </mxGraphModel>
    </diagram>
    <diagram id="ynNsLID_G9LSYan8-uOb" name="設定値表示シーケンス">
        <mxGraphModel dx="895" dy="517" grid="1" gridSize="10" guides="1" tooltips="1" connect="1" arrows="1" fold="1" page="1" pageScale="1" pageWidth="1169" pageHeight="827" math="0" shadow="0">
            <root>
                <mxCell id="0"/>
                <mxCell id="1" parent="0"/>
                <mxCell id="9AxIF_Nijp1v5SiR7yKb-48" value="" style="rounded=0;whiteSpace=wrap;html=1;strokeColor=#000000;strokeWidth=1;fontSize=14;fontColor=#000000;fillColor=default;" vertex="1" parent="1">
                    <mxGeometry x="180" y="80" width="530" height="270" as="geometry"/>
                </mxCell>
                <mxCell id="9AxIF_Nijp1v5SiR7yKb-18" value="Usecase" style="shape=umlLifeline;perimeter=lifelinePerimeter;whiteSpace=wrap;html=1;container=1;collapsible=0;recursiveResize=0;outlineConnect=0;strokeColor=#000000;strokeWidth=1;fontSize=14;fontColor=#000000;fillColor=#FFFFFF;" vertex="1" parent="1">
                    <mxGeometry x="250" y="90" width="100" height="240" as="geometry"/>
                </mxCell>
                <mxCell id="9AxIF_Nijp1v5SiR7yKb-37" value="" style="html=1;points=[];perimeter=orthogonalPerimeter;strokeColor=#000000;strokeWidth=1;fontSize=14;fontColor=#000000;fillColor=default;" vertex="1" parent="9AxIF_Nijp1v5SiR7yKb-18">
                    <mxGeometry x="45" y="90" width="10" height="140" as="geometry"/>
                </mxCell>
                <mxCell id="9AxIF_Nijp1v5SiR7yKb-38" value="Entity取得" style="html=1;verticalAlign=bottom;startArrow=oval;endArrow=block;startSize=8;strokeWidth=1;fontSize=14;fontColor=#000000;" edge="1" target="9AxIF_Nijp1v5SiR7yKb-37" parent="9AxIF_Nijp1v5SiR7yKb-18">
                    <mxGeometry relative="1" as="geometry">
                        <mxPoint x="-40" y="90" as="sourcePoint"/>
                    </mxGeometry>
                </mxCell>
                <mxCell id="9AxIF_Nijp1v5SiR7yKb-30" value="Repository" style="shape=umlLifeline;perimeter=lifelinePerimeter;whiteSpace=wrap;html=1;container=1;collapsible=0;recursiveResize=0;outlineConnect=0;strokeColor=#000000;strokeWidth=1;fontSize=14;fontColor=#000000;fillColor=#FFFFFF;" vertex="1" parent="1">
                    <mxGeometry x="390" y="90" width="100" height="240" as="geometry"/>
                </mxCell>
                <mxCell id="9AxIF_Nijp1v5SiR7yKb-40" value="" style="html=1;points=[];perimeter=orthogonalPerimeter;strokeColor=#000000;strokeWidth=1;fontSize=14;fontColor=#000000;fillColor=default;" vertex="1" parent="9AxIF_Nijp1v5SiR7yKb-30">
                    <mxGeometry x="45" y="110" width="10" height="110" as="geometry"/>
                </mxCell>
                <mxCell id="9AxIF_Nijp1v5SiR7yKb-31" value="Entity" style="shape=umlLifeline;perimeter=lifelinePerimeter;whiteSpace=wrap;html=1;container=1;collapsible=0;recursiveResize=0;outlineConnect=0;strokeColor=#000000;strokeWidth=1;fontSize=14;fontColor=#000000;fillColor=#FFFFFF;" vertex="1" parent="1">
                    <mxGeometry x="534" y="90" width="100" height="240" as="geometry"/>
                </mxCell>
                <mxCell id="9AxIF_Nijp1v5SiR7yKb-43" value="" style="html=1;points=[];perimeter=orthogonalPerimeter;strokeColor=#000000;strokeWidth=1;fontSize=14;fontColor=#000000;fillColor=default;" vertex="1" parent="9AxIF_Nijp1v5SiR7yKb-31">
                    <mxGeometry x="45" y="125" width="10" height="80" as="geometry"/>
                </mxCell>
                <mxCell id="9AxIF_Nijp1v5SiR7yKb-46" value="" style="html=1;points=[];perimeter=orthogonalPerimeter;strokeColor=#000000;strokeWidth=1;fontSize=14;fontColor=#000000;fillColor=default;" vertex="1" parent="9AxIF_Nijp1v5SiR7yKb-31">
                    <mxGeometry x="50" y="159" width="10" height="31" as="geometry"/>
                </mxCell>
                <mxCell id="9AxIF_Nijp1v5SiR7yKb-47" value="ディープ&lt;br&gt;クローン" style="edgeStyle=orthogonalEdgeStyle;html=1;align=left;spacingLeft=2;endArrow=block;rounded=0;entryX=1;entryY=0;strokeWidth=1;fontSize=14;fontColor=#000000;startSize=6;endSize=10;" edge="1" target="9AxIF_Nijp1v5SiR7yKb-46" parent="9AxIF_Nijp1v5SiR7yKb-31">
                    <mxGeometry relative="1" as="geometry">
                        <mxPoint x="55" y="139" as="sourcePoint"/>
                        <Array as="points">
                            <mxPoint x="85" y="139"/>
                        </Array>
                    </mxGeometry>
                </mxCell>
                <mxCell id="9AxIF_Nijp1v5SiR7yKb-41" value="Entity読み出し" style="html=1;verticalAlign=bottom;endArrow=block;entryX=0;entryY=0;strokeWidth=1;fontSize=14;fontColor=#000000;startSize=6;endSize=10;" edge="1" target="9AxIF_Nijp1v5SiR7yKb-40" parent="1" source="9AxIF_Nijp1v5SiR7yKb-37">
                    <mxGeometry relative="1" as="geometry">
                        <mxPoint x="385" y="200" as="sourcePoint"/>
                    </mxGeometry>
                </mxCell>
                <mxCell id="9AxIF_Nijp1v5SiR7yKb-44" value="複製" style="html=1;verticalAlign=bottom;endArrow=block;entryX=0;entryY=0;strokeWidth=1;fontSize=14;fontColor=#000000;startSize=6;endSize=10;" edge="1" target="9AxIF_Nijp1v5SiR7yKb-43" parent="1" source="9AxIF_Nijp1v5SiR7yKb-40">
                    <mxGeometry relative="1" as="geometry">
                        <mxPoint x="450" y="215" as="sourcePoint"/>
                    </mxGeometry>
                </mxCell>
                <mxCell id="9AxIF_Nijp1v5SiR7yKb-45" value="Entity" style="html=1;verticalAlign=bottom;endArrow=open;dashed=1;endSize=8;exitX=0;exitY=0.95;strokeWidth=1;fontSize=14;fontColor=#000000;" edge="1" source="9AxIF_Nijp1v5SiR7yKb-43" parent="1" target="9AxIF_Nijp1v5SiR7yKb-40">
                    <mxGeometry relative="1" as="geometry">
                        <mxPoint x="509" y="291" as="targetPoint"/>
                    </mxGeometry>
                </mxCell>
                <mxCell id="9AxIF_Nijp1v5SiR7yKb-42" value="Entity" style="html=1;verticalAlign=bottom;endArrow=open;dashed=1;endSize=8;exitX=0;exitY=0.95;strokeWidth=1;fontSize=14;fontColor=#000000;" edge="1" source="9AxIF_Nijp1v5SiR7yKb-40" parent="1" target="9AxIF_Nijp1v5SiR7yKb-37">
                    <mxGeometry relative="1" as="geometry">
                        <mxPoint x="365" y="276" as="targetPoint"/>
                    </mxGeometry>
                </mxCell>
                <mxCell id="9AxIF_Nijp1v5SiR7yKb-49" value="Entity" style="html=1;verticalAlign=bottom;endArrow=open;dashed=1;endSize=8;exitX=-0.062;exitY=0.937;strokeWidth=1;fontSize=14;fontColor=#000000;exitDx=0;exitDy=0;exitPerimeter=0;" edge="1" parent="1" source="9AxIF_Nijp1v5SiR7yKb-37">
                    <mxGeometry relative="1" as="geometry">
                        <mxPoint x="203" y="311" as="targetPoint"/>
                        <mxPoint x="445" y="314.4999999999999" as="sourcePoint"/>
                    </mxGeometry>
                </mxCell>
            </root>
        </mxGraphModel>
    </diagram>
    <diagram id="WUic4qwc2AayY6YvbEfU" name="設定値確定シーケンス">
        <mxGraphModel dx="868" dy="501" grid="1" gridSize="10" guides="1" tooltips="1" connect="1" arrows="1" fold="1" page="1" pageScale="1" pageWidth="1169" pageHeight="827" math="0" shadow="0">
            <root>
                <mxCell id="0"/>
                <mxCell id="1" parent="0"/>
                <mxCell id="yUkL9Sy_JPhObDqHqcq0-1" value="" style="rounded=0;whiteSpace=wrap;html=1;strokeColor=#000000;strokeWidth=1;fontSize=14;fontColor=#000000;fillColor=default;" vertex="1" parent="1">
                    <mxGeometry x="180" y="70" width="530" height="350" as="geometry"/>
                </mxCell>
                <mxCell id="yUkL9Sy_JPhObDqHqcq0-2" value="Usecase" style="shape=umlLifeline;perimeter=lifelinePerimeter;whiteSpace=wrap;html=1;container=1;collapsible=0;recursiveResize=0;outlineConnect=0;strokeColor=#000000;strokeWidth=1;fontSize=14;fontColor=#000000;fillColor=#FFFFFF;" vertex="1" parent="1">
                    <mxGeometry x="250" y="90" width="100" height="310" as="geometry"/>
                </mxCell>
                <mxCell id="yUkL9Sy_JPhObDqHqcq0-3" value="" style="html=1;points=[];perimeter=orthogonalPerimeter;strokeColor=#000000;strokeWidth=1;fontSize=14;fontColor=#000000;fillColor=default;" vertex="1" parent="yUkL9Sy_JPhObDqHqcq0-2">
                    <mxGeometry x="45" y="90" width="10" height="210" as="geometry"/>
                </mxCell>
                <mxCell id="yUkL9Sy_JPhObDqHqcq0-4" value="変更確定(entity)" style="html=1;verticalAlign=bottom;startArrow=oval;endArrow=block;startSize=8;strokeWidth=1;fontSize=14;fontColor=#000000;" edge="1" parent="yUkL9Sy_JPhObDqHqcq0-2" target="yUkL9Sy_JPhObDqHqcq0-3">
                    <mxGeometry x="-0.2941" y="10" relative="1" as="geometry">
                        <mxPoint x="-40" y="90" as="sourcePoint"/>
                        <mxPoint as="offset"/>
                    </mxGeometry>
                </mxCell>
                <mxCell id="yUkL9Sy_JPhObDqHqcq0-5" value="Repository" style="shape=umlLifeline;perimeter=lifelinePerimeter;whiteSpace=wrap;html=1;container=1;collapsible=0;recursiveResize=0;outlineConnect=0;strokeColor=#000000;strokeWidth=1;fontSize=14;fontColor=#000000;fillColor=#FFFFFF;" vertex="1" parent="1">
                    <mxGeometry x="390" y="90" width="100" height="300" as="geometry"/>
                </mxCell>
                <mxCell id="yUkL9Sy_JPhObDqHqcq0-6" value="" style="html=1;points=[];perimeter=orthogonalPerimeter;strokeColor=#000000;strokeWidth=1;fontSize=14;fontColor=#000000;fillColor=default;" vertex="1" parent="yUkL9Sy_JPhObDqHqcq0-5">
                    <mxGeometry x="45" y="110" width="10" height="180" as="geometry"/>
                </mxCell>
                <mxCell id="yUkL9Sy_JPhObDqHqcq0-16" value="" style="html=1;points=[];perimeter=orthogonalPerimeter;strokeColor=#000000;strokeWidth=1;fontSize=14;fontColor=#000000;fillColor=default;" vertex="1" parent="yUkL9Sy_JPhObDqHqcq0-5">
                    <mxGeometry x="50" y="240" width="10" height="40" as="geometry"/>
                </mxCell>
                <mxCell id="yUkL9Sy_JPhObDqHqcq0-17" value="格納" style="edgeStyle=orthogonalEdgeStyle;html=1;align=left;spacingLeft=2;endArrow=block;rounded=0;entryX=1;entryY=0;strokeWidth=1;fontSize=14;fontColor=#000000;startSize=6;endSize=10;" edge="1" target="yUkL9Sy_JPhObDqHqcq0-16" parent="yUkL9Sy_JPhObDqHqcq0-5">
                    <mxGeometry x="0.1765" relative="1" as="geometry">
                        <mxPoint x="55" y="210" as="sourcePoint"/>
                        <Array as="points">
                            <mxPoint x="55" y="220"/>
                            <mxPoint x="85" y="220"/>
                            <mxPoint x="85" y="240"/>
                        </Array>
                        <mxPoint as="offset"/>
                    </mxGeometry>
                </mxCell>
                <mxCell id="yUkL9Sy_JPhObDqHqcq0-7" value="Entity" style="shape=umlLifeline;perimeter=lifelinePerimeter;whiteSpace=wrap;html=1;container=1;collapsible=0;recursiveResize=0;outlineConnect=0;strokeColor=#000000;strokeWidth=1;fontSize=14;fontColor=#000000;fillColor=#FFFFFF;" vertex="1" parent="1">
                    <mxGeometry x="534" y="90" width="100" height="300" as="geometry"/>
                </mxCell>
                <mxCell id="yUkL9Sy_JPhObDqHqcq0-8" value="" style="html=1;points=[];perimeter=orthogonalPerimeter;strokeColor=#000000;strokeWidth=1;fontSize=14;fontColor=#000000;fillColor=default;" vertex="1" parent="yUkL9Sy_JPhObDqHqcq0-7">
                    <mxGeometry x="45" y="125" width="10" height="85" as="geometry"/>
                </mxCell>
                <mxCell id="yUkL9Sy_JPhObDqHqcq0-9" value="" style="html=1;points=[];perimeter=orthogonalPerimeter;strokeColor=#000000;strokeWidth=1;fontSize=14;fontColor=#000000;fillColor=default;" vertex="1" parent="yUkL9Sy_JPhObDqHqcq0-7">
                    <mxGeometry x="50" y="159" width="10" height="31" as="geometry"/>
                </mxCell>
                <mxCell id="yUkL9Sy_JPhObDqHqcq0-10" value="ディープ&lt;br&gt;クローン" style="edgeStyle=orthogonalEdgeStyle;html=1;align=left;spacingLeft=2;endArrow=block;rounded=0;entryX=1;entryY=0;strokeWidth=1;fontSize=14;fontColor=#000000;startSize=6;endSize=10;" edge="1" parent="yUkL9Sy_JPhObDqHqcq0-7" target="yUkL9Sy_JPhObDqHqcq0-9">
                    <mxGeometry relative="1" as="geometry">
                        <mxPoint x="55" y="139" as="sourcePoint"/>
                        <Array as="points">
                            <mxPoint x="85" y="139"/>
                        </Array>
                    </mxGeometry>
                </mxCell>
                <mxCell id="yUkL9Sy_JPhObDqHqcq0-11" value="変更確定(entity)" style="html=1;verticalAlign=bottom;endArrow=block;entryX=0;entryY=0;strokeWidth=1;fontSize=14;fontColor=#000000;startSize=6;endSize=10;" edge="1" parent="1" source="yUkL9Sy_JPhObDqHqcq0-3" target="yUkL9Sy_JPhObDqHqcq0-6">
                    <mxGeometry relative="1" as="geometry">
                        <mxPoint x="385" y="200" as="sourcePoint"/>
                    </mxGeometry>
                </mxCell>
                <mxCell id="yUkL9Sy_JPhObDqHqcq0-12" value="複製" style="html=1;verticalAlign=bottom;endArrow=block;entryX=0;entryY=0;strokeWidth=1;fontSize=14;fontColor=#000000;startSize=6;endSize=10;" edge="1" parent="1" source="yUkL9Sy_JPhObDqHqcq0-6" target="yUkL9Sy_JPhObDqHqcq0-8">
                    <mxGeometry relative="1" as="geometry">
                        <mxPoint x="450" y="215" as="sourcePoint"/>
                    </mxGeometry>
                </mxCell>
                <mxCell id="_B0kLmUShtCJrd3-oZ8g-1" value="Entity" style="html=1;verticalAlign=bottom;endArrow=open;dashed=1;endSize=8;exitX=0;exitY=0.95;strokeWidth=1;fontSize=14;fontColor=#000000;" edge="1" parent="1">
                    <mxGeometry relative="1" as="geometry">
                        <mxPoint x="445" y="290.9999999999999" as="targetPoint"/>
                        <mxPoint x="579" y="290.9999999999999" as="sourcePoint"/>
                    </mxGeometry>
                </mxCell>
            </root>
        </mxGraphModel>
    </diagram>
    <diagram id="KmnfrosWcHddf0CXaT90" name="設定データファイル保存シーケンス">
        <mxGraphModel dx="1364" dy="788" grid="1" gridSize="10" guides="1" tooltips="1" connect="1" arrows="1" fold="1" page="1" pageScale="1" pageWidth="1169" pageHeight="827" math="0" shadow="0">
            <root>
                <mxCell id="0"/>
                <mxCell id="1" parent="0"/>
                <mxCell id="eAoEwxh0dMLGcNmNj_3A-1" value="" style="rounded=0;whiteSpace=wrap;html=1;strokeColor=#000000;strokeWidth=1;fontSize=14;fontColor=#000000;fillColor=default;" vertex="1" parent="1">
                    <mxGeometry x="10" y="70" width="1130" height="740" as="geometry"/>
                </mxCell>
                <mxCell id="eAoEwxh0dMLGcNmNj_3A-2" value="Usecase" style="shape=umlLifeline;perimeter=lifelinePerimeter;whiteSpace=wrap;html=1;container=1;collapsible=0;recursiveResize=0;outlineConnect=0;strokeColor=#000000;strokeWidth=1;fontSize=14;fontColor=#000000;fillColor=#FFFFFF;" vertex="1" parent="1">
                    <mxGeometry x="50" y="90" width="100" height="710" as="geometry"/>
                </mxCell>
                <mxCell id="eAoEwxh0dMLGcNmNj_3A-20" value="" style="html=1;points=[];perimeter=orthogonalPerimeter;strokeColor=#000000;strokeWidth=1;fontSize=14;fontColor=#000000;fillColor=default;" vertex="1" parent="eAoEwxh0dMLGcNmNj_3A-2">
                    <mxGeometry x="45" y="70" width="10" height="630" as="geometry"/>
                </mxCell>
                <mxCell id="eAoEwxh0dMLGcNmNj_3A-21" value="保存" style="html=1;verticalAlign=bottom;startArrow=oval;endArrow=block;startSize=8;strokeWidth=1;fontSize=14;fontColor=#000000;" edge="1" target="eAoEwxh0dMLGcNmNj_3A-20" parent="eAoEwxh0dMLGcNmNj_3A-2">
                    <mxGeometry relative="1" as="geometry">
                        <mxPoint x="-15" y="70" as="sourcePoint"/>
                    </mxGeometry>
                </mxCell>
                <mxCell id="eAoEwxh0dMLGcNmNj_3A-40" value="" style="html=1;points=[];perimeter=orthogonalPerimeter;strokeColor=#000000;strokeWidth=1;fontSize=14;fontColor=#000000;fillColor=default;" vertex="1" parent="eAoEwxh0dMLGcNmNj_3A-2">
                    <mxGeometry x="50" y="441" width="10" height="40" as="geometry"/>
                </mxCell>
                <mxCell id="eAoEwxh0dMLGcNmNj_3A-41" value="全体Data Packet生成" style="edgeStyle=orthogonalEdgeStyle;html=1;align=left;spacingLeft=2;endArrow=block;rounded=0;entryX=1;entryY=0;strokeWidth=1;fontSize=14;fontColor=#000000;startSize=6;endSize=10;" edge="1" target="eAoEwxh0dMLGcNmNj_3A-40" parent="eAoEwxh0dMLGcNmNj_3A-2">
                    <mxGeometry relative="1" as="geometry">
                        <mxPoint x="55" y="421" as="sourcePoint"/>
                        <Array as="points">
                            <mxPoint x="85" y="421"/>
                        </Array>
                    </mxGeometry>
                </mxCell>
                <mxCell id="eAoEwxh0dMLGcNmNj_3A-5" value="Repository" style="shape=umlLifeline;perimeter=lifelinePerimeter;whiteSpace=wrap;html=1;container=1;collapsible=0;recursiveResize=0;outlineConnect=0;strokeColor=#000000;strokeWidth=1;fontSize=14;fontColor=#000000;fillColor=#FFFFFF;" vertex="1" parent="1">
                    <mxGeometry x="250" y="90" width="100" height="710" as="geometry"/>
                </mxCell>
                <mxCell id="eAoEwxh0dMLGcNmNj_3A-9" value="AAA Entity" style="shape=umlLifeline;perimeter=lifelinePerimeter;whiteSpace=wrap;html=1;container=1;collapsible=0;recursiveResize=0;outlineConnect=0;strokeColor=#000000;strokeWidth=1;fontSize=14;fontColor=#000000;fillColor=#FFFFFF;" vertex="1" parent="1">
                    <mxGeometry x="360" y="90" width="100" height="710" as="geometry"/>
                </mxCell>
                <mxCell id="eAoEwxh0dMLGcNmNj_3A-31" value="" style="html=1;points=[];perimeter=orthogonalPerimeter;strokeColor=#000000;strokeWidth=1;fontSize=14;fontColor=#000000;fillColor=default;" vertex="1" parent="eAoEwxh0dMLGcNmNj_3A-9">
                    <mxGeometry x="45" y="180" width="10" height="40" as="geometry"/>
                </mxCell>
                <mxCell id="eAoEwxh0dMLGcNmNj_3A-16" value="BBB Entity" style="shape=umlLifeline;perimeter=lifelinePerimeter;whiteSpace=wrap;html=1;container=1;collapsible=0;recursiveResize=0;outlineConnect=0;strokeColor=#000000;strokeWidth=1;fontSize=14;fontColor=#000000;fillColor=#FFFFFF;" vertex="1" parent="1">
                    <mxGeometry x="470" y="90" width="100" height="710" as="geometry"/>
                </mxCell>
                <mxCell id="eAoEwxh0dMLGcNmNj_3A-37" value="" style="html=1;points=[];perimeter=orthogonalPerimeter;strokeColor=#000000;strokeWidth=1;fontSize=14;fontColor=#000000;fillColor=default;" vertex="1" parent="eAoEwxh0dMLGcNmNj_3A-16">
                    <mxGeometry x="44" y="360" width="10" height="40" as="geometry"/>
                </mxCell>
                <mxCell id="eAoEwxh0dMLGcNmNj_3A-17" value="&amp;lt;&amp;lt;Application Service層&amp;gt;&amp;gt;&lt;br&gt;Data File Accessor" style="shape=umlLifeline;perimeter=lifelinePerimeter;whiteSpace=wrap;html=1;container=1;collapsible=0;recursiveResize=0;outlineConnect=0;strokeColor=#000000;strokeWidth=1;fontSize=14;fontColor=#000000;fillColor=#FFFFFF;" vertex="1" parent="1">
                    <mxGeometry x="585" y="90" width="205" height="710" as="geometry"/>
                </mxCell>
                <mxCell id="eAoEwxh0dMLGcNmNj_3A-47" value="" style="html=1;points=[];perimeter=orthogonalPerimeter;strokeColor=#000000;strokeWidth=1;fontSize=14;fontColor=#000000;fillColor=default;" vertex="1" parent="eAoEwxh0dMLGcNmNj_3A-17">
                    <mxGeometry x="97.5" y="496" width="10" height="174" as="geometry"/>
                </mxCell>
                <mxCell id="eAoEwxh0dMLGcNmNj_3A-50" value="" style="html=1;points=[];perimeter=orthogonalPerimeter;strokeColor=#000000;strokeWidth=1;fontSize=14;fontColor=#000000;fillColor=default;" vertex="1" parent="eAoEwxh0dMLGcNmNj_3A-17">
                    <mxGeometry x="102.5" y="536" width="10" height="40" as="geometry"/>
                </mxCell>
                <mxCell id="eAoEwxh0dMLGcNmNj_3A-51" value="JSON変換" style="edgeStyle=orthogonalEdgeStyle;html=1;align=left;spacingLeft=2;endArrow=block;rounded=0;entryX=1;entryY=0;strokeWidth=1;fontSize=14;fontColor=#000000;startSize=6;endSize=10;exitX=1.064;exitY=0.1;exitDx=0;exitDy=0;exitPerimeter=0;" edge="1" target="eAoEwxh0dMLGcNmNj_3A-50" parent="eAoEwxh0dMLGcNmNj_3A-17" source="eAoEwxh0dMLGcNmNj_3A-47">
                    <mxGeometry relative="1" as="geometry">
                        <mxPoint x="107.5" y="516" as="sourcePoint"/>
                        <Array as="points">
                            <mxPoint x="108" y="516"/>
                            <mxPoint x="137" y="516"/>
                            <mxPoint x="137" y="536"/>
                        </Array>
                    </mxGeometry>
                </mxCell>
                <mxCell id="eAoEwxh0dMLGcNmNj_3A-18" value="&amp;lt;&amp;lt;Infrastructure層&amp;gt;&amp;gt;&lt;br style=&quot;border-color: var(--border-color);&quot;&gt;Data File Accessor" style="shape=umlLifeline;perimeter=lifelinePerimeter;whiteSpace=wrap;html=1;container=1;collapsible=0;recursiveResize=0;outlineConnect=0;strokeColor=#000000;strokeWidth=1;fontSize=14;fontColor=#000000;fillColor=#FFFFFF;" vertex="1" parent="1">
                    <mxGeometry x="810" y="90" width="170" height="710" as="geometry"/>
                </mxCell>
                <mxCell id="eAoEwxh0dMLGcNmNj_3A-52" value="" style="html=1;points=[];perimeter=orthogonalPerimeter;strokeColor=#000000;strokeWidth=1;fontSize=14;fontColor=#000000;fillColor=default;" vertex="1" parent="eAoEwxh0dMLGcNmNj_3A-18">
                    <mxGeometry x="80" y="590" width="10" height="60" as="geometry"/>
                </mxCell>
                <mxCell id="eAoEwxh0dMLGcNmNj_3A-19" value="&amp;lt;&amp;lt;.NET&amp;gt;&amp;gt;&lt;br&gt;System.IO.FIle" style="shape=umlLifeline;perimeter=lifelinePerimeter;whiteSpace=wrap;html=1;container=1;collapsible=0;recursiveResize=0;outlineConnect=0;strokeColor=#666666;strokeWidth=1;fontSize=14;fontColor=#FFFFFF;fillColor=#878787;" vertex="1" parent="1">
                    <mxGeometry x="990" y="90" width="130" height="710" as="geometry"/>
                </mxCell>
                <mxCell id="eAoEwxh0dMLGcNmNj_3A-55" value="" style="html=1;points=[];perimeter=orthogonalPerimeter;strokeColor=#000000;strokeWidth=1;fontSize=14;fontColor=#000000;fillColor=default;" vertex="1" parent="eAoEwxh0dMLGcNmNj_3A-19">
                    <mxGeometry x="60" y="610" width="10" height="30" as="geometry"/>
                </mxCell>
                <mxCell id="eAoEwxh0dMLGcNmNj_3A-25" value="ref" style="shape=umlFrame;tabPosition=left;html=1;boundedLbl=1;labelInHeader=1;width=50;height=30;strokeWidth=1;fontSize=14;swimlaneFillColor=#FFFFFF;" vertex="1" parent="1">
                    <mxGeometry x="268" y="170" width="182" height="70" as="geometry"/>
                </mxCell>
                <mxCell id="eAoEwxh0dMLGcNmNj_3A-26" value="Entity読み出し" style="text;align=center;strokeColor=none;strokeWidth=1;fontSize=14;fontColor=#000000;fillColor=default;" vertex="1" parent="eAoEwxh0dMLGcNmNj_3A-25">
                    <mxGeometry width="100" height="20" relative="1" as="geometry">
                        <mxPoint x="63" y="6" as="offset"/>
                    </mxGeometry>
                </mxCell>
                <mxCell id="eAoEwxh0dMLGcNmNj_3A-27" value="ref" style="shape=umlFrame;tabPosition=left;html=1;boundedLbl=1;labelInHeader=1;width=50;height=30;strokeColor=#000000;strokeWidth=1;fontSize=14;fontColor=#000000;fillColor=default;swimlaneFillColor=#FFFFFF;" vertex="1" parent="1">
                    <mxGeometry x="268" y="350" width="282" height="70" as="geometry"/>
                </mxCell>
                <mxCell id="eAoEwxh0dMLGcNmNj_3A-28" value="Entity読み出し" style="text;align=center;strokeColor=none;strokeWidth=1;fontSize=14;fontColor=#000000;fillColor=default;" vertex="1" parent="eAoEwxh0dMLGcNmNj_3A-27">
                    <mxGeometry width="100" height="20" relative="1" as="geometry">
                        <mxPoint x="63" y="6" as="offset"/>
                    </mxGeometry>
                </mxCell>
                <mxCell id="eAoEwxh0dMLGcNmNj_3A-29" value="AAA Entity読み出し" style="html=1;verticalAlign=bottom;endArrow=block;strokeWidth=1;fontSize=14;fontColor=#000000;startSize=6;endSize=10;entryX=-0.009;entryY=0.23;entryDx=0;entryDy=0;entryPerimeter=0;" edge="1" parent="1" source="eAoEwxh0dMLGcNmNj_3A-20" target="eAoEwxh0dMLGcNmNj_3A-25">
                    <mxGeometry width="80" relative="1" as="geometry">
                        <mxPoint x="160" y="190" as="sourcePoint"/>
                        <mxPoint x="240" y="190" as="targetPoint"/>
                    </mxGeometry>
                </mxCell>
                <mxCell id="eAoEwxh0dMLGcNmNj_3A-30" value="AAA Entity" style="html=1;verticalAlign=bottom;endArrow=open;dashed=1;endSize=8;strokeWidth=1;fontSize=14;fontColor=#000000;exitX=-0.005;exitY=0.712;exitDx=0;exitDy=0;exitPerimeter=0;" edge="1" parent="1" source="eAoEwxh0dMLGcNmNj_3A-25" target="eAoEwxh0dMLGcNmNj_3A-20">
                    <mxGeometry relative="1" as="geometry">
                        <mxPoint x="250" y="230" as="sourcePoint"/>
                        <mxPoint x="170" y="230" as="targetPoint"/>
                    </mxGeometry>
                </mxCell>
                <mxCell id="eAoEwxh0dMLGcNmNj_3A-32" value="Data Packetを取得" style="html=1;verticalAlign=bottom;endArrow=block;entryX=0;entryY=0;strokeWidth=1;fontSize=14;fontColor=#000000;startSize=6;endSize=10;" edge="1" target="eAoEwxh0dMLGcNmNj_3A-31" parent="1" source="eAoEwxh0dMLGcNmNj_3A-20">
                    <mxGeometry relative="1" as="geometry">
                        <mxPoint x="369" y="270" as="sourcePoint"/>
                    </mxGeometry>
                </mxCell>
                <mxCell id="eAoEwxh0dMLGcNmNj_3A-33" value="AAA Eneity Data Packet" style="html=1;verticalAlign=bottom;endArrow=open;dashed=1;endSize=8;exitX=0;exitY=0.95;strokeWidth=1;fontSize=14;fontColor=#000000;" edge="1" source="eAoEwxh0dMLGcNmNj_3A-31" parent="1" target="eAoEwxh0dMLGcNmNj_3A-20">
                    <mxGeometry relative="1" as="geometry">
                        <mxPoint x="369" y="346" as="targetPoint"/>
                    </mxGeometry>
                </mxCell>
                <mxCell id="eAoEwxh0dMLGcNmNj_3A-34" value="BBB Entity読み出し" style="html=1;verticalAlign=bottom;endArrow=block;strokeWidth=1;fontSize=14;fontColor=#000000;startSize=6;endSize=10;entryX=-0.003;entryY=0.224;entryDx=0;entryDy=0;entryPerimeter=0;" edge="1" parent="1" source="eAoEwxh0dMLGcNmNj_3A-20" target="eAoEwxh0dMLGcNmNj_3A-27">
                    <mxGeometry width="80" relative="1" as="geometry">
                        <mxPoint x="135" y="360.6399999999999" as="sourcePoint"/>
                        <mxPoint x="268.00200000000024" y="384.5799999999999" as="targetPoint"/>
                    </mxGeometry>
                </mxCell>
                <mxCell id="eAoEwxh0dMLGcNmNj_3A-36" value="BBB Entity" style="html=1;verticalAlign=bottom;endArrow=open;dashed=1;endSize=8;strokeWidth=1;fontSize=14;fontColor=#000000;exitX=-0.01;exitY=0.712;exitDx=0;exitDy=0;exitPerimeter=0;" edge="1" parent="1" source="eAoEwxh0dMLGcNmNj_3A-27" target="eAoEwxh0dMLGcNmNj_3A-20">
                    <mxGeometry relative="1" as="geometry">
                        <mxPoint x="266.99" y="219.83999999999992" as="sourcePoint"/>
                        <mxPoint x="105" y="219.83999999999992" as="targetPoint"/>
                        <Array as="points"/>
                    </mxGeometry>
                </mxCell>
                <mxCell id="eAoEwxh0dMLGcNmNj_3A-38" value="Data Packetを取得" style="html=1;verticalAlign=bottom;endArrow=block;entryX=0;entryY=0;strokeWidth=1;fontSize=14;fontColor=#000000;startSize=6;endSize=10;" edge="1" parent="1" target="eAoEwxh0dMLGcNmNj_3A-37" source="eAoEwxh0dMLGcNmNj_3A-20">
                    <mxGeometry relative="1" as="geometry">
                        <mxPoint x="250" y="450" as="sourcePoint"/>
                    </mxGeometry>
                </mxCell>
                <mxCell id="eAoEwxh0dMLGcNmNj_3A-39" value="BBB Eneity Data Packet" style="html=1;verticalAlign=bottom;endArrow=open;dashed=1;endSize=8;exitX=0;exitY=0.95;strokeWidth=1;fontSize=14;fontColor=#000000;" edge="1" parent="1" source="eAoEwxh0dMLGcNmNj_3A-37" target="eAoEwxh0dMLGcNmNj_3A-20">
                    <mxGeometry relative="1" as="geometry">
                        <mxPoint x="250" y="487.9999999999998" as="targetPoint"/>
                    </mxGeometry>
                </mxCell>
                <mxCell id="eAoEwxh0dMLGcNmNj_3A-48" value="保存（全体Data Packet）" style="html=1;verticalAlign=bottom;endArrow=block;entryX=0;entryY=0;strokeWidth=1;fontSize=14;fontColor=#000000;startSize=6;endSize=10;" edge="1" target="eAoEwxh0dMLGcNmNj_3A-47" parent="1">
                    <mxGeometry relative="1" as="geometry">
                        <mxPoint x="105" y="586" as="sourcePoint"/>
                    </mxGeometry>
                </mxCell>
                <mxCell id="eAoEwxh0dMLGcNmNj_3A-53" value="保存（JSONテキスト）" style="html=1;verticalAlign=bottom;endArrow=block;entryX=0;entryY=0;strokeWidth=1;fontSize=14;fontColor=#000000;startSize=6;endSize=10;" edge="1" target="eAoEwxh0dMLGcNmNj_3A-52" parent="1" source="eAoEwxh0dMLGcNmNj_3A-47">
                    <mxGeometry relative="1" as="geometry">
                        <mxPoint x="780" y="690" as="sourcePoint"/>
                    </mxGeometry>
                </mxCell>
                <mxCell id="eAoEwxh0dMLGcNmNj_3A-56" value="ファイル書き出し" style="html=1;verticalAlign=bottom;endArrow=block;entryX=0;entryY=0;strokeWidth=1;fontSize=14;fontColor=#000000;startSize=6;endSize=10;" edge="1" target="eAoEwxh0dMLGcNmNj_3A-55" parent="1" source="eAoEwxh0dMLGcNmNj_3A-52">
                    <mxGeometry relative="1" as="geometry">
                        <mxPoint x="1010" y="710" as="sourcePoint"/>
                    </mxGeometry>
                </mxCell>
            </root>
        </mxGraphModel>
    </diagram>
    <diagram id="R1XJYFu7Xz_P5JkZfcI3" name="設定データファイル読み込みシーケンス">
        <mxGraphModel dx="1432" dy="1654" grid="1" gridSize="10" guides="1" tooltips="1" connect="1" arrows="1" fold="1" page="1" pageScale="1" pageWidth="1169" pageHeight="827" math="0" shadow="0">
            <root>
                <mxCell id="0"/>
                <mxCell id="1" parent="0"/>
                <mxCell id="2jNCZi1OW8lUXwfSMuRi-1" value="" style="rounded=0;whiteSpace=wrap;html=1;strokeColor=#000000;strokeWidth=1;fontSize=14;fontColor=#000000;fillColor=default;" vertex="1" parent="1">
                    <mxGeometry x="5" y="-180" width="580" height="220" as="geometry"/>
                </mxCell>
                <mxCell id="2jNCZi1OW8lUXwfSMuRi-2" value="Usecase" style="shape=umlLifeline;perimeter=lifelinePerimeter;whiteSpace=wrap;html=1;container=1;collapsible=0;recursiveResize=0;outlineConnect=0;strokeColor=#000000;strokeWidth=1;fontSize=14;fontColor=#000000;fillColor=#FFFFFF;" vertex="1" parent="1">
                    <mxGeometry x="50" y="90" width="100" height="710" as="geometry"/>
                </mxCell>
                <mxCell id="2jNCZi1OW8lUXwfSMuRi-3" value="" style="html=1;points=[];perimeter=orthogonalPerimeter;strokeColor=#000000;strokeWidth=1;fontSize=14;fontColor=#000000;fillColor=default;" vertex="1" parent="2jNCZi1OW8lUXwfSMuRi-2">
                    <mxGeometry x="45" y="70" width="10" height="630" as="geometry"/>
                </mxCell>
                <mxCell id="2jNCZi1OW8lUXwfSMuRi-4" value="保存" style="html=1;verticalAlign=bottom;startArrow=oval;endArrow=block;startSize=8;strokeWidth=1;fontSize=14;fontColor=#000000;" edge="1" parent="2jNCZi1OW8lUXwfSMuRi-2" target="2jNCZi1OW8lUXwfSMuRi-3">
                    <mxGeometry relative="1" as="geometry">
                        <mxPoint x="-15" y="70" as="sourcePoint"/>
                    </mxGeometry>
                </mxCell>
                <mxCell id="2jNCZi1OW8lUXwfSMuRi-5" value="" style="html=1;points=[];perimeter=orthogonalPerimeter;strokeColor=#000000;strokeWidth=1;fontSize=14;fontColor=#000000;fillColor=default;" vertex="1" parent="2jNCZi1OW8lUXwfSMuRi-2">
                    <mxGeometry x="50" y="645" width="10" height="40" as="geometry"/>
                </mxCell>
                <mxCell id="2jNCZi1OW8lUXwfSMuRi-6" value="全体Data Packet生成" style="edgeStyle=orthogonalEdgeStyle;html=1;align=left;spacingLeft=2;endArrow=block;rounded=0;entryX=1;entryY=0;strokeWidth=1;fontSize=14;fontColor=#000000;startSize=6;endSize=10;" edge="1" parent="2jNCZi1OW8lUXwfSMuRi-2" target="2jNCZi1OW8lUXwfSMuRi-5">
                    <mxGeometry relative="1" as="geometry">
                        <mxPoint x="55" y="625" as="sourcePoint"/>
                        <Array as="points">
                            <mxPoint x="85" y="625"/>
                        </Array>
                    </mxGeometry>
                </mxCell>
                <mxCell id="2jNCZi1OW8lUXwfSMuRi-7" value="Repository" style="shape=umlLifeline;perimeter=lifelinePerimeter;whiteSpace=wrap;html=1;container=1;collapsible=0;recursiveResize=0;outlineConnect=0;strokeColor=#000000;strokeWidth=1;fontSize=14;fontColor=#000000;fillColor=#FFFFFF;" vertex="1" parent="1">
                    <mxGeometry x="250" y="90" width="100" height="710" as="geometry"/>
                </mxCell>
                <mxCell id="2jNCZi1OW8lUXwfSMuRi-8" value="AAA Entity" style="shape=umlLifeline;perimeter=lifelinePerimeter;whiteSpace=wrap;html=1;container=1;collapsible=0;recursiveResize=0;outlineConnect=0;strokeColor=#000000;strokeWidth=1;fontSize=14;fontColor=#000000;fillColor=#FFFFFF;" vertex="1" parent="1">
                    <mxGeometry x="360" y="90" width="100" height="710" as="geometry"/>
                </mxCell>
                <mxCell id="2jNCZi1OW8lUXwfSMuRi-9" value="" style="html=1;points=[];perimeter=orthogonalPerimeter;strokeColor=#000000;strokeWidth=1;fontSize=14;fontColor=#000000;fillColor=default;" vertex="1" parent="2jNCZi1OW8lUXwfSMuRi-8">
                    <mxGeometry x="45" y="384" width="10" height="40" as="geometry"/>
                </mxCell>
                <mxCell id="2jNCZi1OW8lUXwfSMuRi-10" value="BBB Entity" style="shape=umlLifeline;perimeter=lifelinePerimeter;whiteSpace=wrap;html=1;container=1;collapsible=0;recursiveResize=0;outlineConnect=0;strokeColor=#000000;strokeWidth=1;fontSize=14;fontColor=#000000;fillColor=#FFFFFF;" vertex="1" parent="1">
                    <mxGeometry x="470" y="90" width="100" height="710" as="geometry"/>
                </mxCell>
                <mxCell id="2jNCZi1OW8lUXwfSMuRi-11" value="" style="html=1;points=[];perimeter=orthogonalPerimeter;strokeColor=#000000;strokeWidth=1;fontSize=14;fontColor=#000000;fillColor=default;" vertex="1" parent="2jNCZi1OW8lUXwfSMuRi-10">
                    <mxGeometry x="44" y="564" width="10" height="40" as="geometry"/>
                </mxCell>
                <mxCell id="2jNCZi1OW8lUXwfSMuRi-12" value="&amp;lt;&amp;lt;Application Service層&amp;gt;&amp;gt;&lt;br&gt;Data File Accessor" style="shape=umlLifeline;perimeter=lifelinePerimeter;whiteSpace=wrap;html=1;container=1;collapsible=0;recursiveResize=0;outlineConnect=0;strokeColor=#000000;strokeWidth=1;fontSize=14;fontColor=#000000;fillColor=#FFFFFF;" vertex="1" parent="1">
                    <mxGeometry x="585" y="90" width="205" height="710" as="geometry"/>
                </mxCell>
                <mxCell id="2jNCZi1OW8lUXwfSMuRi-13" value="" style="html=1;points=[];perimeter=orthogonalPerimeter;strokeColor=#000000;strokeWidth=1;fontSize=14;fontColor=#000000;fillColor=default;" vertex="1" parent="2jNCZi1OW8lUXwfSMuRi-12">
                    <mxGeometry x="97.5" y="90" width="10" height="174" as="geometry"/>
                </mxCell>
                <mxCell id="2jNCZi1OW8lUXwfSMuRi-14" value="" style="html=1;points=[];perimeter=orthogonalPerimeter;strokeColor=#000000;strokeWidth=1;fontSize=14;fontColor=#000000;fillColor=default;" vertex="1" parent="2jNCZi1OW8lUXwfSMuRi-12">
                    <mxGeometry x="102.5" y="130" width="10" height="40" as="geometry"/>
                </mxCell>
                <mxCell id="2jNCZi1OW8lUXwfSMuRi-15" value="JSON変換" style="edgeStyle=orthogonalEdgeStyle;html=1;align=left;spacingLeft=2;endArrow=block;rounded=0;entryX=1;entryY=0;strokeWidth=1;fontSize=14;fontColor=#000000;startSize=6;endSize=10;exitX=1.064;exitY=0.1;exitDx=0;exitDy=0;exitPerimeter=0;" edge="1" parent="2jNCZi1OW8lUXwfSMuRi-12" source="2jNCZi1OW8lUXwfSMuRi-13" target="2jNCZi1OW8lUXwfSMuRi-14">
                    <mxGeometry relative="1" as="geometry">
                        <mxPoint x="107.5" y="110" as="sourcePoint"/>
                        <Array as="points">
                            <mxPoint x="108" y="110"/>
                            <mxPoint x="137" y="110"/>
                            <mxPoint x="137" y="130"/>
                        </Array>
                    </mxGeometry>
                </mxCell>
                <mxCell id="2jNCZi1OW8lUXwfSMuRi-16" value="&amp;lt;&amp;lt;Infrastructure層&amp;gt;&amp;gt;&lt;br style=&quot;border-color: var(--border-color);&quot;&gt;Data File Accessor" style="shape=umlLifeline;perimeter=lifelinePerimeter;whiteSpace=wrap;html=1;container=1;collapsible=0;recursiveResize=0;outlineConnect=0;strokeColor=#000000;strokeWidth=1;fontSize=14;fontColor=#000000;fillColor=#FFFFFF;" vertex="1" parent="1">
                    <mxGeometry x="810" y="90" width="170" height="710" as="geometry"/>
                </mxCell>
                <mxCell id="2jNCZi1OW8lUXwfSMuRi-17" value="" style="html=1;points=[];perimeter=orthogonalPerimeter;strokeColor=#000000;strokeWidth=1;fontSize=14;fontColor=#000000;fillColor=default;" vertex="1" parent="2jNCZi1OW8lUXwfSMuRi-16">
                    <mxGeometry x="80" y="184" width="10" height="60" as="geometry"/>
                </mxCell>
                <mxCell id="2jNCZi1OW8lUXwfSMuRi-18" value="&amp;lt;&amp;lt;.NET&amp;gt;&amp;gt;&lt;br&gt;System.IO.FIle" style="shape=umlLifeline;perimeter=lifelinePerimeter;whiteSpace=wrap;html=1;container=1;collapsible=0;recursiveResize=0;outlineConnect=0;strokeColor=#666666;strokeWidth=1;fontSize=14;fontColor=#FFFFFF;fillColor=#878787;" vertex="1" parent="1">
                    <mxGeometry x="990" y="90" width="130" height="710" as="geometry"/>
                </mxCell>
                <mxCell id="2jNCZi1OW8lUXwfSMuRi-19" value="" style="html=1;points=[];perimeter=orthogonalPerimeter;strokeColor=#000000;strokeWidth=1;fontSize=14;fontColor=#000000;fillColor=default;" vertex="1" parent="2jNCZi1OW8lUXwfSMuRi-18">
                    <mxGeometry x="60" y="204" width="10" height="30" as="geometry"/>
                </mxCell>
                <mxCell id="2jNCZi1OW8lUXwfSMuRi-20" value="ref" style="shape=umlFrame;tabPosition=left;html=1;boundedLbl=1;labelInHeader=1;width=50;height=30;strokeWidth=1;fontSize=14;swimlaneFillColor=#FFFFFF;" vertex="1" parent="1">
                    <mxGeometry x="268" y="374" width="182" height="70" as="geometry"/>
                </mxCell>
                <mxCell id="2jNCZi1OW8lUXwfSMuRi-21" value="Entity読み出し" style="text;align=center;strokeColor=none;strokeWidth=1;fontSize=14;fontColor=#000000;fillColor=default;" vertex="1" parent="2jNCZi1OW8lUXwfSMuRi-20">
                    <mxGeometry width="100" height="20" relative="1" as="geometry">
                        <mxPoint x="63" y="6" as="offset"/>
                    </mxGeometry>
                </mxCell>
                <mxCell id="2jNCZi1OW8lUXwfSMuRi-22" value="ref" style="shape=umlFrame;tabPosition=left;html=1;boundedLbl=1;labelInHeader=1;width=50;height=30;strokeColor=#000000;strokeWidth=1;fontSize=14;fontColor=#000000;fillColor=default;swimlaneFillColor=#FFFFFF;" vertex="1" parent="1">
                    <mxGeometry x="268" y="554" width="282" height="70" as="geometry"/>
                </mxCell>
                <mxCell id="2jNCZi1OW8lUXwfSMuRi-23" value="Entity読み出し" style="text;align=center;strokeColor=none;strokeWidth=1;fontSize=14;fontColor=#000000;fillColor=default;" vertex="1" parent="2jNCZi1OW8lUXwfSMuRi-22">
                    <mxGeometry width="100" height="20" relative="1" as="geometry">
                        <mxPoint x="63" y="6" as="offset"/>
                    </mxGeometry>
                </mxCell>
                <mxCell id="2jNCZi1OW8lUXwfSMuRi-24" value="AAA Entity読み出し" style="html=1;verticalAlign=bottom;endArrow=block;strokeWidth=1;fontSize=14;fontColor=#000000;startSize=6;endSize=10;entryX=-0.009;entryY=0.23;entryDx=0;entryDy=0;entryPerimeter=0;" edge="1" parent="1" target="2jNCZi1OW8lUXwfSMuRi-20">
                    <mxGeometry width="80" relative="1" as="geometry">
                        <mxPoint x="105" y="390.0999999999999" as="sourcePoint"/>
                        <mxPoint x="240" y="394" as="targetPoint"/>
                    </mxGeometry>
                </mxCell>
                <mxCell id="2jNCZi1OW8lUXwfSMuRi-25" value="AAA Entity" style="html=1;verticalAlign=bottom;endArrow=open;dashed=1;endSize=8;strokeWidth=1;fontSize=14;fontColor=#000000;exitX=-0.005;exitY=0.712;exitDx=0;exitDy=0;exitPerimeter=0;" edge="1" parent="1" source="2jNCZi1OW8lUXwfSMuRi-20">
                    <mxGeometry relative="1" as="geometry">
                        <mxPoint x="250" y="434" as="sourcePoint"/>
                        <mxPoint x="105" y="423.8399999999999" as="targetPoint"/>
                    </mxGeometry>
                </mxCell>
                <mxCell id="2jNCZi1OW8lUXwfSMuRi-26" value="Data Packetを取得" style="html=1;verticalAlign=bottom;endArrow=block;entryX=0;entryY=0;strokeWidth=1;fontSize=14;fontColor=#000000;startSize=6;endSize=10;" edge="1" parent="1" target="2jNCZi1OW8lUXwfSMuRi-9">
                    <mxGeometry relative="1" as="geometry">
                        <mxPoint x="105" y="474" as="sourcePoint"/>
                    </mxGeometry>
                </mxCell>
                <mxCell id="2jNCZi1OW8lUXwfSMuRi-27" value="AAA Eneity Data Packet" style="html=1;verticalAlign=bottom;endArrow=open;dashed=1;endSize=8;exitX=0;exitY=0.95;strokeWidth=1;fontSize=14;fontColor=#000000;" edge="1" parent="1" source="2jNCZi1OW8lUXwfSMuRi-9">
                    <mxGeometry relative="1" as="geometry">
                        <mxPoint x="105" y="512" as="targetPoint"/>
                    </mxGeometry>
                </mxCell>
                <mxCell id="2jNCZi1OW8lUXwfSMuRi-28" value="BBB Entity読み出し" style="html=1;verticalAlign=bottom;endArrow=block;strokeWidth=1;fontSize=14;fontColor=#000000;startSize=6;endSize=10;entryX=-0.003;entryY=0.224;entryDx=0;entryDy=0;entryPerimeter=0;" edge="1" parent="1" target="2jNCZi1OW8lUXwfSMuRi-22">
                    <mxGeometry width="80" relative="1" as="geometry">
                        <mxPoint x="105" y="569.6800000000001" as="sourcePoint"/>
                        <mxPoint x="268.00200000000024" y="588.5799999999999" as="targetPoint"/>
                    </mxGeometry>
                </mxCell>
                <mxCell id="2jNCZi1OW8lUXwfSMuRi-29" value="BBB Entity" style="html=1;verticalAlign=bottom;endArrow=open;dashed=1;endSize=8;strokeWidth=1;fontSize=14;fontColor=#000000;exitX=-0.01;exitY=0.712;exitDx=0;exitDy=0;exitPerimeter=0;" edge="1" parent="1" source="2jNCZi1OW8lUXwfSMuRi-22">
                    <mxGeometry relative="1" as="geometry">
                        <mxPoint x="266.99" y="423.8399999999999" as="sourcePoint"/>
                        <mxPoint x="105" y="603.8400000000001" as="targetPoint"/>
                        <Array as="points"/>
                    </mxGeometry>
                </mxCell>
                <mxCell id="2jNCZi1OW8lUXwfSMuRi-30" value="Data Packetを取得" style="html=1;verticalAlign=bottom;endArrow=block;entryX=0;entryY=0;strokeWidth=1;fontSize=14;fontColor=#000000;startSize=6;endSize=10;" edge="1" parent="1" target="2jNCZi1OW8lUXwfSMuRi-11">
                    <mxGeometry relative="1" as="geometry">
                        <mxPoint x="105" y="654" as="sourcePoint"/>
                    </mxGeometry>
                </mxCell>
                <mxCell id="2jNCZi1OW8lUXwfSMuRi-31" value="BBB Eneity Data Packet" style="html=1;verticalAlign=bottom;endArrow=open;dashed=1;endSize=8;exitX=0;exitY=0.95;strokeWidth=1;fontSize=14;fontColor=#000000;" edge="1" parent="1" source="2jNCZi1OW8lUXwfSMuRi-11">
                    <mxGeometry relative="1" as="geometry">
                        <mxPoint x="105" y="692" as="targetPoint"/>
                    </mxGeometry>
                </mxCell>
                <mxCell id="2jNCZi1OW8lUXwfSMuRi-32" value="保存（全体Data Packet）" style="html=1;verticalAlign=bottom;endArrow=block;entryX=0;entryY=0;strokeWidth=1;fontSize=14;fontColor=#000000;startSize=6;endSize=10;" edge="1" parent="1" target="2jNCZi1OW8lUXwfSMuRi-13" source="2jNCZi1OW8lUXwfSMuRi-3">
                    <mxGeometry relative="1" as="geometry">
                        <mxPoint x="105" y="586" as="sourcePoint"/>
                    </mxGeometry>
                </mxCell>
                <mxCell id="2jNCZi1OW8lUXwfSMuRi-33" value="保存（JSONテキスト）" style="html=1;verticalAlign=bottom;endArrow=block;entryX=0;entryY=0;strokeWidth=1;fontSize=14;fontColor=#000000;startSize=6;endSize=10;" edge="1" parent="1" source="2jNCZi1OW8lUXwfSMuRi-13" target="2jNCZi1OW8lUXwfSMuRi-17">
                    <mxGeometry relative="1" as="geometry">
                        <mxPoint x="780" y="284" as="sourcePoint"/>
                    </mxGeometry>
                </mxCell>
                <mxCell id="2jNCZi1OW8lUXwfSMuRi-34" value="ファイル書き出し" style="html=1;verticalAlign=bottom;endArrow=block;entryX=0;entryY=0;strokeWidth=1;fontSize=14;fontColor=#000000;startSize=6;endSize=10;" edge="1" parent="1" source="2jNCZi1OW8lUXwfSMuRi-17" target="2jNCZi1OW8lUXwfSMuRi-19">
                    <mxGeometry relative="1" as="geometry">
                        <mxPoint x="1010" y="304" as="sourcePoint"/>
                    </mxGeometry>
                </mxCell>
            </root>
        </mxGraphModel>
    </diagram>
</mxfile>